<svg xmlns="http://www.w3.org/2000/svg" xmlns:xlink="http://www.w3.org/1999/xlink" width="200" zoomAndPan="magnify" viewBox="0 0 150 149.999998" height="200" preserveAspectRatio="xMidYMid meet" version="1.0"><defs><clipPath id="eeaa00cffb"><path d="M 33.851562 33.851562 L 116.351562 33.851562 L 116.351562 116.351562 L 33.851562 116.351562 Z M 33.851562 33.851562 " clip-rule="nonzero"/></clipPath></defs><rect x="-15" width="180" fill="#ffffff" y="-15" height="179.999997" fill-opacity="1"/><rect x="-15" width="180" fill="#ffffff" y="-15" height="179.999997" fill-opacity="1"/><rect x="-15" width="180" fill="#000000" y="-15" height="179.999997" fill-opacity="1"/><g clip-path="url(#eeaa00cffb)"><path fill="#ffffff" d="M 79.894531 116.359375 L 49.734375 116.359375 C 40.957031 116.359375 33.84375 109.246094 33.84375 100.472656 L 33.84375 49.746094 C 33.84375 40.972656 40.957031 33.859375 49.734375 33.859375 L 79.675781 33.859375 C 63.015625 41.441406 47.980469 51.777344 45.328125 64.964844 C 38.9375 96.683594 87.507812 61.917969 87.507812 61.917969 L 52.273438 103.394531 C 52.273438 103.394531 93.3125 64.8125 96.886719 90.585938 C 98.539062 102.515625 89.777344 110.847656 79.894531 116.359375 Z M 99.730469 50.328125 L 108.515625 82.046875 L 97.015625 116.359375 L 100.457031 116.359375 C 109.230469 116.359375 116.34375 109.246094 116.34375 100.472656 L 116.34375 49.746094 C 116.34375 49.539062 116.320312 49.335938 116.3125 49.128906 Z M 99.730469 50.328125 " fill-opacity="1" fill-rule="nonzero"/></g></svg>