<svg height="911.316" viewBox="0 0 519.155 911.316" width="519.155" xmlns="http://www.w3.org/2000/svg"><path d="m43.516 846.141c-5.11-.39-9.82-1.08-13.91-2.11-8.66-2.17-14.55-5.84-15.65-11.23-1.51-7.4-6.22-73.2-12.96-106.02 0 0 8.06-.76 20.11-1.86 7.32-.67 16.13-1.46 25.49-2.29 30.64-2.74 67.25-5.85 77.61-6.11.91 35.35 11.24 84.79 13.26 97.22 3.44 21.24-56.26 35.23-93.95 32.4z" fill="#b2b2b2"/><path d="m63.636 838.491c-2.04 1.19-4.78.1-6.22-1.77-1.44-1.86-1.89-4.28-2.3-6.6l-5.22-29.34c-.58-3.23-2.38-7.38-5.61-6.77-2.93.56-3.45 4.49-3.28 7.47.84 14.88 1.67 29.77 2.51 44.66-5.11-.39-9.82-1.08-13.91-2.11-2.14-8.62-3.99-17.31-5.57-26.06-3.24-17.97-5.3-36.15-6.15-54.39-.56-12.23-3.9-27.95 3.22-38.66 7.32-.67 16.13-1.46 25.49-2.29.72 1.06 1.34 2.19 1.85 3.35 1.66 3.79 2.31 7.93 2.94 12.01l14.22 92.49c.45 2.9.56 6.54-1.97 8.01z" fill="#fff"/><path d="m.027 727.039c2.996 14.639 4.781 29.536 6.478 44.371 1.68 14.687 3.094 29.403 4.53 44.115.454 4.652.888 9.309 1.444 13.951.295 2.468.552 4.873 1.953 7.004 3.83 5.823 12.095 7.879 18.482 9.091 10.227 1.941 20.841 1.984 31.198 1.353 11.591-.706 23.167-2.409 34.444-5.189 9.648-2.379 19.495-5.485 28.033-10.684 5.413-3.296 11.755-8.318 11.994-15.251.054-1.571-.281-3.123-.551-4.662-.419-2.384-.86-4.764-1.298-7.144-1.27-6.903-2.531-13.808-3.717-20.727-3.073-17.927-5.804-35.969-7.165-54.117-.317-4.225-.549-8.457-.661-12.693-.013-.501-.45-.704-.908-.692-6.461.168-12.92.716-19.363 1.201-10.165.765-20.323 1.612-30.479 2.478-11.036.941-22.07 1.914-33.102 2.902-9.078.813-18.155 1.638-27.231 2.473-4.273.393-8.613.605-12.865 1.192-.058.008-.117.011-.175.016-1.113.104-1.459 1.628-.147 1.505 3.51-.329 7.021-.653 10.532-.977 8.644-.797 17.288-1.585 25.934-2.363 10.945-.985 21.892-1.954 32.841-2.896 10.415-.896 20.832-1.772 31.254-2.575 7.049-.544 14.107-1.121 21.173-1.403.494-.02.987-.037 1.481-.05l-.908-.692c.475 17.887 2.839 35.722 5.592 53.383 2.125 13.637 4.695 27.191 7.119 40.776.536 3.005 1.094 5.807-.069 8.744s-3.392 5.311-5.801 7.276c-6.945 5.665-15.85 8.932-24.328 11.493-10.86 3.28-22.099 5.339-33.376 6.502-10.71 1.105-21.611 1.478-32.331.29-4.29-.475-8.591-1.195-12.715-2.492-3.158-.993-6.334-2.314-8.889-4.467-1.915-1.613-3.195-3.656-3.611-6.133-.564-3.352-.834-6.766-1.176-10.146-1.355-13.381-2.586-26.775-4.014-40.149-1.638-15.333-3.394-30.68-5.956-45.89-.521-3.09-1.082-6.174-1.71-9.244-.195-.951-2.13-.45-1.932.518z"/><path d="m141.523 0c.621 0 1.125 307.037 1.125 311.996s-.504 311.781-1.125 311.781-1.125-306.822-1.125-311.781.503-311.996 1.125-311.996z"/><path d="m98.227 482.584c2.518 8.527 13.185 24.527 30.741 23.86-3.333-11.111-15.994-23.874-30.741-23.86z" fill="#b2b2b2"/><path d="m97.261 482.843c2.941 9.797 11.031 18.923 20.661 22.467 3.422 1.259 7.034 1.818 10.676 1.703.347-.011 1.519-.232 1.336-.827-4.036-13.158-17.422-24.081-31.336-24.17-.369-.002-1.119.126-1.273.536-.149.396.127.599.532.601 13.425.086 26.271 10.92 30.145 23.55l1.336-.827c-11.756.37-21.679-7.224-27.315-17.099-1.164-2.04-2.154-4.199-2.83-6.451-.211-.702-2.139-.174-1.932.518z"/><path d="m365.232 832.401c-.654-2.979-1.691-6.021-3.61-8.438-3.601-4.537-9.444-4.807-14.686-3.508-8.754 2.17-16.792 7.479-24.132 12.512-7.997 5.483-15.803 11.322-22.955 17.882-6.676 6.125-13.441 13.142-15.988 22.068-2.215 7.762-1.659 16.38 2.157 23.555 4.059 7.631 11.518 12.558 19.915 14.206 9.355 1.836 18.521-.405 26.584-5.324 8.624-5.261 15.654-12.993 21.146-21.396 5.647-8.64 9.928-18.431 11.801-28.611.561-3.048.887-6.125.925-9.225.02-4.583-.171-9.23-1.156-13.721z"/><path d="m365.416 846.221c-.02 2.66-.27 5.42-.75 8.23-6.8-.34-13.47-1.77-18.8-3.71-8.89-3.23-16.92-10.39-20.03-19.04 26.53-17.58 39.77-16.19 39.58 14.52z" fill="#fff"/><path d="m364.435 846.283c-.034 2.763-.296 5.505-.75 8.23l1.306-.802c-8.112-.436-16.797-2.036-23.918-6.13-6.322-3.634-11.727-9.227-14.27-16.139l-.315.737c4.373-2.891 8.874-5.64 13.639-7.84 3.322-1.534 6.891-2.904 10.572-3.185 2.654-.202 5.319.285 7.456 1.95 2.337 1.822 3.673 4.635 4.521 7.408 1.551 5.072 1.783 10.504 1.76 15.771-.005 1.054 1.959.804 1.963-.124.022-5.083-.198-10.301-1.525-15.235-.851-3.162-2.235-6.327-4.722-8.545-5.244-4.676-13.075-2.554-18.841-.168-5.694 2.357-10.997 5.621-16.125 9.011-.21.139-.41.479-.315.737 2.634 7.159 8.166 13.009 14.725 16.781 7.387 4.249 16.321 5.998 24.747 6.45.538.029 1.204-.19 1.306-.802.454-2.725.716-5.467.75-8.23.013-1.053-1.952-.805-1.963.124z"/><path d="m280.076 870.221c-13.03-56.96-25.67-135.82-67.85-200.7-10.61-16.32-23.1-31.76-37.93-45.74 0 0 6.52-1.72 14.52-.86 18.1 11.43 36.69 28.54 54.6 49.51 40.76 47.68 78.07 115.29 98.44 181.35 7.25 23.51-54.96 46.22-61.78 16.44z" fill="#b2b2b2"/><path d="m281.042 869.962c-3.428-14.997-6.55-30.061-9.901-45.075-3.724-16.685-7.707-33.318-12.369-49.769-4.929-17.396-10.609-34.593-17.443-51.338-7.031-17.227-15.294-33.975-25.125-49.782-10.199-16.398-22.107-31.746-35.745-45.432-1.724-1.73-3.476-3.431-5.251-5.108l-.838.598c1.514-.395 3.291-.628 4.925-.787 1.871-.182 3.752-.248 5.631-.192 1.096.033 2.483-.041 3.46.472.725.38 1.408.905 2.092 1.355 6.029 3.975 11.789 8.351 17.325 12.986 12.399 10.381 23.707 22.039 34.225 34.305 9.649 11.253 18.648 23.056 27.1 35.231 8.826 12.714 17.058 25.839 24.736 39.276 7.927 13.873 15.264 28.084 21.986 42.579 6.71 14.471 12.81 29.229 18.195 44.244 1.321 3.684 2.599 7.383 3.832 11.097 1.106 3.334 2.346 6.689 3.205 10.097.756 3.001.359 6.111-.875 8.928-2.949 6.731-9.576 11.526-15.943 14.744-7.179 3.628-15.35 5.895-23.436 5.634-6.954-.225-14.262-2.703-17.875-9.063-.888-1.562-1.5-3.256-1.909-5.002-.09-.384-2.031.096-1.932.518.824 3.515 2.554 6.743 5.273 9.153 2.62 2.322 5.931 3.721 9.326 4.459 7.945 1.726 16.501.272 24.093-2.314s15.173-6.65 20.518-12.722c2.18-2.477 4.006-5.371 4.738-8.623.992-4.41-.674-8.393-2.017-12.558-5.001-15.509-10.803-30.758-17.263-45.717-6.558-15.186-13.8-30.078-21.673-44.626-7.684-14.198-15.97-28.074-24.884-41.534-8.5-12.833-17.571-25.298-27.315-37.217-10.402-12.725-21.562-24.881-33.781-35.888-5.649-5.089-11.529-9.929-17.689-14.389-1.491-1.08-2.998-2.137-4.523-3.168-.695-.47-1.393-.935-2.095-1.394-.643-.421-1.415-1.12-2.148-1.364-.815-.271-1.957-.192-2.802-.23-1.021-.046-2.043-.056-3.064-.033-1.612.037-3.223.148-4.824.345s-3.201.44-4.758.845c-.103.027-1.116.336-.838.598 14.32 13.526 26.878 28.817 37.636 45.308 10.121 15.514 18.663 32.023 25.938 49.048 7.137 16.702 13.067 33.9 18.191 51.318 4.831 16.423 8.94 33.047 12.733 49.737 3.465 15.247 6.647 30.557 10.062 45.816.384 1.717.772 3.433 1.164 5.149.087.382 2.029-.093 1.932-.518z"/><path d="m229.708 737.481c36.148-13.316 83.259-61.518 83.259-89.037 0-32.444-59.708-23.444-59.708-23.444l6.721-11.32c18.32-9.348 84.54-15.457 84.54 50.209 0 59.222-51.997 115.667-77.331 134.345-11.556-18.234-37.481-60.753-37.481-60.753z" fill="#b2b2b2"/><path d="m230.138 738.058c7.88-2.919 15.297-7.007 22.328-11.583 7.876-5.126 15.301-10.947 22.279-17.236 12.948-11.668 25.213-25.173 33.265-40.758 5.275-10.21 9.611-24.145 1.046-33.902-7.467-8.505-20.378-10.564-31.07-11.224-5.206-.321-10.436-.273-15.64.052-1.839.115-3.676.265-5.508.456-1.005.104-2.091.133-3.078.365-.135.032-.279.038-.416.059l.841.828 6.721-11.32-.495.462c4.255-2.16 8.999-3.376 13.667-4.247 6.221-1.161 12.622-1.579 18.941-1.245 13.988.738 28.256 5.386 37.819 16.069 13.554 15.141 14.363 37.613 11.241 56.665-4.037 24.641-15.64 47.665-29.913 67.92-11.758 16.686-25.635 32.408-41.566 45.239-1.329 1.071-2.679 2.116-4.052 3.13l1.526.019c-5.97-9.423-11.819-18.924-17.668-28.422-5.502-8.935-10.985-17.881-16.457-26.834-1.119-1.832-2.239-3.664-3.356-5.497-.457-.749-2.297-.014-1.768.855 3.135 5.142 6.278 10.278 9.424 15.413 6.223 10.158 12.46 20.309 18.738 30.433 3.088 4.98 6.183 9.956 9.319 14.906.308.486 1.164.287 1.526.019 7.525-5.56 14.435-11.974 20.967-18.658 8.602-8.803 16.548-18.263 23.73-28.258 7.914-11.015 14.938-22.718 20.524-35.088 5.62-12.447 9.804-25.643 11.555-39.215 1.53-11.861 1.426-24.381-2.202-35.875-2.636-8.348-7.296-15.95-13.958-21.68-5.924-5.095-13.159-8.498-20.695-10.437-7.305-1.88-14.902-2.498-22.427-2.148-6.403.298-12.851 1.264-18.99 3.137-2.203.672-4.838 1.366-6.784 2.645-.929.61-1.486 2.132-2.033 3.054l-3.364 5.666-1.819 3.063c-.314.53.426.89.841.828 6.492-.976 13.166-1.254 19.719-1.124 5.649.112 11.331.619 16.853 1.847 5.283 1.175 10.614 3.081 14.89 6.485 4.148 3.301 6.69 7.974 7.236 13.247.63 6.087-1.24 12.235-3.646 17.754-3.162 7.253-7.528 13.956-12.308 20.237-5.424 7.127-11.484 13.77-17.937 19.977-12.739 12.253-27.322 23.458-43.551 30.671-1.696.754-3.414 1.454-5.154 2.099-.39.144-.697.621-.454 1.003.272.428.94.287 1.313.149z"/><path d="m198.832 650.762c.18.23.369.455.547.685-.083-.304-.278-.537-.547-.685z"/><path d="m197.491 644.593c.119.212.573.423.785.355.476-.153.722-.605.441-1.077-.124-.207-.516-.255-.746-.357-.557.203-.739.619-.48 1.079z"/><path d="m201.868 647.468c-.455.248-.671.648-.525 1.137.199.667.665 1.113 1.37.762.452-.226.488-.785.263-1.245-.214-.436-.563-.734-1.108-.654z"/><path d="m202.168 654.581c-.166-.031-.301-.023-.422.002.38.506.766 1.009 1.142 1.517.075-1.104-.262-1.433-.721-1.519z"/><path d="m206.797 659.248c.117-.495-.06-.95-.544-1.189-.476-.235-.931-.131-1.126.377-.088.229-.098.435-.075.629.194.27.383.542.576.812.05.03.085.068.141.095.59.109.911-.229 1.028-.723z"/><path d="m205.118 643.351c-.449.202-.75.556-.655 1.113.358.595.84.945 1.547.624.448-.204.837-.599.633-1.102-.26-.642-.821-.952-1.525-.636z"/><path d="m205.195 653.011c.946-.042 1.376-.704 1.579-1.522.144-.582-.282-.951-.793-.934-.908.03-1.482.602-1.637 1.486-.099.567.292.859.851.97z"/><path d="m209.498 654.501c-.463-.158-.938.22-1.004.701-.125.901.431 1.482 1.225 1.731.494.155.831-.247 1.039-.727.065-.903-.496-1.445-1.259-1.706z"/><path d="m209.365 664.036c.673-.051 1.063-.588 1.163-1.277-.049-.552-.4-.899-.896-.938-.697-.055-1.245.326-1.341 1.028-.1.729.353 1.242 1.074 1.187z"/><path d="m239.418 669.42c-.288-.017-.554.046-.762.181.599.362 1.199.745 1.798 1.145.027-.676-.371-1.128-1.036-1.326z"/><path d="m228.318 660.006c.427-.172.642-.657.384-1.105-.12-.208-.501-.414-.731-.382-.467.064-.811.365-.712.93.212.459.614.736 1.059.558z"/><path d="m220.567 650.589c-.51.091-.91.469-.922 1.011-.016.741.437 1.292 1.148 1.311.754.02 1.093-.575 1.13-1.31-.127-.773-.599-1.148-1.356-1.013z"/><path d="m208.96 648.995c.643.361 1.235.102 1.642-.522.277-.77-.113-1.267-.744-1.563-.488-.229-.973-.021-1.253.428-.397.638-.297 1.292.354 1.657z"/><path d="m234.643 666.481c-.133.521.146 1.005.635 1.163.794.256 1.202-.266 1.304-.535.276-.973.012-1.407-.476-1.559-.779-.241-1.279.21-1.463.931z"/><path d="m231.176 662.4c-.206.673.009 1.205.721 1.455.593.122.872-.263 1.034-.716.256-.714-.07-1.223-.74-1.445-.57-.188-.875.25-1.015.706z"/><path d="m224.222 655.125c-.12.498.167.856.683.844.173-.004.338-.335.506-.518-.173-.218-.308-.542-.529-.619-.175-.061-.622.139-.66.293z"/><path d="m224.14 663.941c.761.092 1.196-.377 1.391-1.084-.038-.545-.319-.974-.841-1.048-.775-.109-1.237.404-1.361 1.094-.095.532.277.973.81 1.038z"/><path d="m220.885 660.146c.457-.144.816-.45.734-1.026-.239-.68-.7-1.008-1.413-.771-.455.152-.877.446-.722 1.02.19.702.702.998 1.401.777z"/><path d="m213.121 644.999c.457-.063.834-.332.707-.916-.205-.454-.591-.751-1.043-.567-.421.171-.642.654-.39 1.103.117.208.497.412.726.381z"/><path d="m213.331 658.176c-.51.06-.975.286-1.066.796-.16.896.446 1.114 1.171 1.024.544-.068.877-.483.868-1.013-.01-.567-.472-.75-.974-.807z"/><path d="m213.238 652.91c.712-.022 1.134-.544 1.192-1.291-.174-.743-.662-1.127-1.405-1.04-.531.063-.879.453-.881 1.01-.002.722.303 1.345 1.093 1.32z"/><path d="m213.157 667.852c.665-.033 1.154-.432 1.307-1.135-.118-.693-.549-1.188-1.212-1.239-.706-.054-1.195.45-1.204 1.152-.008.663.335 1.26 1.109 1.222z"/><path d="m217.877 647.981c-.144-.691-.58-1.097-1.275-1.042-.188.015-.45.433-.49.694-.105.684.149 1.256.93 1.25.478-.004.813-.364.836-.903z"/><path d="m217.112 661.727c-.579 0-1.007.316-.979.855.022.432.269 1.121.569 1.217.763.245 1.237-.303 1.28-1.047.03-.521-.342-.884-.87-1.024z"/><path d="m215.451 655.568c.076.71.601 1.116 1.306 1.028.698-.087 1.052-.598 1.082-1.311-.089-.807-.69-1.025-1.336-.988-.721.041-1.128.565-1.052 1.27z"/><path d="m218.523 310.667c.15 5.193-3.111 18.444-3.111 18.444-10.444-.889-26.444-1.556-38-11.556 8.014-13.778 24.222-10.889 41.111-6.889z" fill="#fff"/><path d="m217.557 310.925c.077 3.74-.784 7.561-1.52 11.208-.482 2.386-1.002 4.767-1.583 7.131l1.571-.594c-10.558-.893-21.408-1.724-30.932-6.825-1.252-.671-2.469-1.408-3.639-2.213-.541-.372-1.072-.759-1.592-1.16-.294-.227-.689-.464-.933-.745-.529-.608-.321-.757.123-1.426 1.344-2.028 3.034-3.826 5.046-5.201 4.227-2.889 9.494-3.478 14.491-3.257 6.479.286 12.859 1.745 19.149 3.232.431.102.976.004 1.357-.223.162-.096.67-.485.213-.593-6.563-1.551-13.244-3.095-20.01-3.318-5.597-.184-11.385.613-16.192 3.671-2.792 1.776-4.975 4.264-6.651 7.096-.029.077-.011.142.052.194 10.715 9.166 24.825 10.512 38.292 11.65.382.032 1.452-.106 1.571-.594.604-2.46 1.144-4.937 1.641-7.42.725-3.625 1.555-7.413 1.479-11.13-.009-.425-1.945-.104-1.932.518z"/><path d="m202.758 328.338c-.062 0-.124-.011-.184-.035-.257-.102-.382-.392-.281-.649 1.426-3.603 2.489-7.949 3.073-12.569.035-.274.286-.462.559-.433.274.035.468.285.433.559-.595 4.702-1.679 9.132-3.136 12.811-.078.196-.266.316-.465.316z"/><path d="m188.943 324.872c-.083 0-.168-.021-.246-.065-.24-.136-.325-.441-.189-.681 1.75-3.095 3.557-7.354 4.498-10.599.077-.265.354-.417.62-.341.265.077.418.354.341.62-.96 3.312-2.804 7.657-4.588 10.813-.092.163-.261.254-.436.254z"/><path d="m286.896 562.371c0 8-.79 15.18-2.25 21.6v.01c-11.07 48.91-60.33 53.87-87.83 39.8-42.37 11.48-59.26-20.52-59.26-38.6s10.67-37.63 31.11-50.37c4.55-22.03 4.86-60.73-1.7-90.46-.54-2.41-1.12-4.75-1.74-7.03-4.2-15.36-10.52-27.41-19.37-31.99 0 0 8.96-6.81 24.67-11.85 9.89 6.52 18.22 21.04 23.85 35.85 3.76.91 7.81 2.48 12.05 4.62h.01c.18.09.35.18.53.27 11.44 5.91 24.17 15.97 36.05 28.86 19.02 20.6 35.85 48.39 41.69 77.74 1.42 7.12 2.19 14.33 2.19 21.55z" fill="#b2b2b2"/><path d="m285.915 562.435c-.031 15.54-3.012 31.692-12.165 44.589-6.712 9.458-16.384 16.372-27.415 19.895-10.285 3.285-21.391 3.781-31.99 1.84-4.93-.902-9.766-2.352-14.344-4.396-.964-.431-2.308-1.448-3.371-1.281-2.07.324-4.113 1.029-6.184 1.406-3.724.678-7.519 1.027-11.305.97-11.719-.177-22.854-4.969-30.448-13.99-5.762-6.845-9.657-15.799-10.115-24.79-.732-14.371 6.02-28.497 15.556-38.899 2.893-3.156 6.09-6.024 9.507-8.602 1.723-1.3 3.52-2.473 5.315-3.669 1.161-.774 1.126-2.947 1.353-4.248 1.271-7.309 1.947-14.722 2.328-22.127.889-17.292.198-34.776-2.318-51.912-1.312-8.933-3.147-17.841-6.018-26.413-2.452-7.323-5.684-14.829-10.915-20.626-2.013-2.231-4.315-4.126-6.977-5.529l.099 1.15c1.949-1.477 4.099-2.719 6.232-3.903 5.713-3.17 11.762-5.712 17.976-7.721l-.927-.123c5.154 3.442 9.18 8.332 12.584 13.453 3.989 6.001 7.195 12.51 9.9 19.179.335.825.649 1.659.981 2.486.321.801.519.812 1.356 1.031 1.79.468 3.548 1.061 5.271 1.732 1.589.618 3.151 1.306 4.687 2.045.438.211.88.418 1.31.646l.225.057c.315-.019.332.007.05.078.77.399 1.537.803 2.295 1.224 5.704 3.166 11.067 6.938 16.144 11.027 11.049 8.898 20.843 19.368 29.383 30.681 8.471 11.222 15.751 23.41 21.277 36.35 6.526 15.28 10.625 31.717 10.664 48.391.002 1.048 1.965.791 1.962-.128-.055-23.269-7.802-45.897-19.248-65.95-11.123-19.486-25.937-37.366-43.567-51.3-4.588-3.626-9.406-6.983-14.498-9.865-1.045-.591-2.097-1.199-3.18-1.717-.206-.098-.417-.17-.622-.259-.455-.198.003.02-.66-.378-.733-.44-1.596-.763-2.375-1.109-2.92-1.298-5.923-2.365-9.025-3.133l.64.475c-4.193-10.979-9.591-22.201-17.784-30.79-1.676-1.757-3.482-3.403-5.464-4.811-1.317-.935-1.801-.687-3.332-.17-1.579.533-3.145 1.103-4.699 1.706-4.561 1.768-9.013 3.844-13.257 6.28-1.911 1.097-3.839 2.238-5.599 3.571-.48.364-.4.887.099 1.15 6.82 3.593 11.128 10.887 14.138 17.707 3.956 8.961 6.312 18.617 8.008 28.236 3.279 18.591 4.17 37.701 3.26 56.543-.427 8.836-1.248 17.705-3.027 26.381l.332-.537c-10.29 6.452-19.148 15.263-24.906 26.015-4.504 8.409-7.248 18.314-6.392 27.905 1.271 14.245 10.225 27.805 23.02 34.235 8.69 4.367 18.701 5.211 28.231 3.857 1.396-.199 2.788-.439 4.17-.718.706-.143 1.41-.296 2.111-.459.391-.091.781-.185 1.171-.282.263-.066.526-.132.788-.201.445-.056.53-.1.254-.132.659.081 1.613.788 2.229 1.066.904.408 1.818.792 2.741 1.153 3.466 1.356 7.057 2.391 10.7 3.146 15.754 3.262 33.064 1.213 46.954-7.178 7.541-4.556 13.832-10.857 18.443-18.361 5.8-9.439 8.755-20.39 9.838-31.349.352-3.566.503-7.147.51-10.729.002-1.047-1.961-.791-1.962.128z"/><path d="m181.116 322.171c-3.11 9.56 5.18 22.81 26.52 22.27 5.21-.13 12.28.01 10.27 6.78-8 20.54-23.26 36.46-41.71 47.02 7.41 7.53 13.66 19.21 18.18 31.09 3.76.91 7.81 2.48 12.05 4.62h.01c.18.09.35.18.53.27-2.43 2.21-5.27 4.02-8.25 5.37-6.79 3.07-14.29 4.12-21.69 5.04-3.36.11-6.72.03-10.06-.28-.54-2.41-1.12-4.75-1.74-7.03-3.37-12.33-8.12-22.52-14.43-28.43-19.94 5.64-41.23 5.87-60.05 0-32.33-10.08-50.48-39.6-52.64-73.23-1.05-16.54 1.75-34.07 8.64-50.77 17.31-42 78.67-68.89 120-56 35.36 11.02 57.33 36.7 59.3 72.96.66 10.19-7.99 18.58-18.63 13.93-10.67-4.67-23.19-3.16-26.3 6.39z" fill="#fff"/><path d="m180.194 322.064c-1.603 5.062-.164 10.46 3.227 14.463 4.761 5.622 12.289 8.009 19.423 8.514 3.682.261 7.673-.453 11.269.574 1.334.381 2.604 1.091 3.02 2.502.593 2.012-.58 4.143-1.355 5.933-3.776 8.731-9.005 16.782-15.357 23.857-7.072 7.878-15.479 14.5-24.649 19.77-.278.16-.816.619-.459.986 5.88 6.025 10.269 13.436 13.869 20.999.966 2.03 1.877 4.087 2.736 6.164.401.97.792 1.945 1.171 2.924.465 1.199.674 1.192 1.905 1.529 2.09.572 4.136 1.301 6.137 2.132 1.009.419 2.007.864 2.994 1.331.585.277 1.158.578 1.743.853.153.05.31.068.471.054-.468-.068-.507-.027-.118.124l.107-.988c-5.071 4.543-11.374 6.965-17.956 8.382-3.343.72-6.733 1.191-10.124 1.621-3.592.455-7.349.188-10.945-.134l.63.437c-2.305-10.218-5.366-20.749-11.22-29.561-1.168-1.758-2.462-3.437-3.921-4.964-.522-.546-1.086-1.385-1.907-1.377-.531.005-1.102.281-1.614.419-.827.223-1.656.437-2.487.641-5.707 1.404-11.518 2.366-17.375 2.862-20.401 1.729-42.168-2.019-58.935-14.34-13.876-10.197-23.275-25.355-27.922-41.803-5.719-20.244-4.561-42.184 1.868-62.116 2.764-8.569 6.458-16.668 11.772-23.962 4.742-6.509 10.418-12.313 16.656-17.393 12.997-10.584 28.425-18.265 44.614-22.552 15.121-4.004 31.556-5.212 46.769-.986 16.13 4.481 31.542 13.21 42.579 25.924 10.933 12.595 16.858 28.553 18.13 45.091.332 4.309-.025 8.573-2.797 12.099-2.553 3.247-6.466 4.808-10.551 4.159-2.348-.373-4.443-1.541-6.69-2.257-2.034-.648-4.142-1.104-6.267-1.315-3.876-.386-7.96-.005-11.507 1.699-3.267 1.569-5.768 4.261-6.936 7.705-.355 1.048 1.572 1.018 1.845.213 2.763-8.149 12.127-9.367 19.497-7.635 4.172.981 7.854 3.332 12.264 3.142 3.584-.154 6.98-1.805 9.377-4.462 2.493-2.763 3.821-6.485 3.881-10.186.066-4.08-.561-8.294-1.265-12.303-1.363-7.76-3.825-15.305-7.422-22.319-7.09-13.824-18.587-24.859-32.148-32.297-7.12-3.905-14.823-7.079-22.715-9.032-7.08-1.752-14.388-2.397-21.67-2.211-15.682.4-31.26 4.574-45.435 11.191-14.235 6.645-27.48 15.985-37.717 27.97-4.853 5.682-9.024 11.996-12.077 18.826-4.382 9.802-7.242 20.415-8.68 31.043-2.453 18.133-.582 37.126 6.795 53.972 6.475 14.787 17.245 27.561 31.394 35.505 17.68 9.926 39.266 12.116 59.1 9.363 5.321-.739 10.584-1.847 15.756-3.299l-1.06-.231c4.236 4.014 7.232 9.186 9.567 14.487 2.937 6.667 4.922 13.715 6.522 20.808.061.272.381.414.63.437 3.663.328 7.555.633 11.215.171s7.285-.968 10.877-1.741c6.886-1.482 13.578-4.068 18.883-8.821.254-.228.572-.751.107-.988-.342-.174-.742-.261-1.063-.414-.316-.151.386.171-.133-.183-.175-.119-.432-.213-.622-.305-1.268-.615-2.553-1.195-3.856-1.731-2.311-.949-4.677-1.749-7.102-2.349l.407.387c-4.277-11.187-9.809-22.595-18.261-31.255l-.459.986c16.351-9.397 30.287-22.978 38.83-39.903 1.096-2.172 2.101-4.39 3.01-6.647.638-1.584 1.131-3.413.453-5.075-1.165-2.855-4.957-3.306-7.625-3.425-4.329-.193-8.566.104-12.851-.794-3.682-.772-7.272-2.204-10.284-4.486-4.894-3.708-8.055-10.073-6.116-16.195.334-1.056-1.589-1.023-1.845-.213z"/><path d="m170.296 449.781c-20.3 14.39-35.79 29.8-47.62 45.25-38.83 50.74-38.05 101.9-37.71 118.6 0 0 11.56 3.41 15.5 18.86 2.72 10.65 11.68 18.49 19.8 22.62 11.37 5.78 8.55 22.37-8.78 20.74-10.66-1-19.7-7.85-26.82-15.85-7.11-8-35.25 1.78-56.59 6.67-16.89-12.89-9.78-42.67 5.78-53.34 1.26-46.28 20.58-91.44 64.38-130.75 18.03-16.19 40.21-31.38 66.99-45.26 0 0 6.41 4.01 5.07 12.46z" fill="#fff"/><path d="m169.527 449.642c-12.737 9.047-24.652 19.242-35.305 30.679-10.475 11.245-19.679 23.677-27.181 37.097-6.929 12.397-12.404 25.597-16.248 39.27-3.04 10.813-5.066 21.906-6.081 33.091-.674 7.418-.872 14.862-.745 22.307.01.601.022 1.202.034 1.803.034.094.099.159.193.195 2.315.691 4.495 2.167 6.321 3.699 2.001 1.679 3.728 3.675 5.137 5.873 1.961 3.058 3.061 6.384 4.053 9.849 1.998 6.975 6.727 12.903 12.376 17.326 2.552 1.999 5.312 3.496 8.105 5.107 2.004 1.156 3.748 2.872 4.791 4.95 1.879 3.744 1.377 8.398-1.675 11.377-4.489 4.38-11.984 3.559-17.429 1.806-7.468-2.404-13.796-7.437-19.087-13.104-1.581-1.693-2.913-3-5.172-3.703-2.246-.699-4.64-.854-6.98-.822-6.488.086-12.955 1.48-19.252 2.931-7.411 1.707-14.743 3.735-22.122 5.569-1.765.439-3.533.865-5.305 1.273l1.021.085c-12.803-9.901-11.466-28.996-4.141-41.809 1.834-3.208 4.101-6.203 6.846-8.687.623-.563 1.269-1.101 1.938-1.608.292-.221.774-.443 1.007-.727.314-.382.211-.873.227-1.355.077-2.294.198-4.587.364-6.876.664-9.122 2.053-18.19 4.182-27.085 4.45-18.586 12.166-36.282 22.474-52.361 11.541-18.002 26.155-33.874 42.425-47.696 16.523-14.037 34.738-25.996 53.748-36.379 2.576-1.407 5.168-2.783 7.773-4.135l-1.365.191c-.214-.136.158.104.214.156.199.186.434.34.64.52.747.653 1.415 1.399 1.989 2.208 1.923 2.706 2.508 5.999 2.035 9.251-.104.714 1.836.371 1.928-.257.472-3.245-.041-6.464-1.831-9.243-.785-1.219-1.937-2.735-3.263-3.433-1.218-.641-3.051.871-4.083 1.414-2.232 1.177-4.454 2.374-6.663 3.593-4.226 2.331-8.41 4.741-12.542 7.235-15.022 9.064-29.415 19.239-42.646 30.776-13.528 11.796-25.858 25.036-36.13 39.775-9.223 13.233-16.747 27.667-22.033 42.916-5.045 14.554-8.025 29.787-8.934 45.16-.111 1.87-.189 3.741-.242 5.613l.371-.391c-10.658 7.391-16.545 21.432-15.845 34.208.355 6.478 2.65 12.885 7.256 17.562.993 1.008 2.182 2.562 3.703 2.248 2.033-.42 4.048-.96 6.061-1.465 4.215-1.057 8.416-2.169 12.628-3.242 7.864-2.004 15.853-4.09 23.967-4.751 2.87-.234 5.887-.3 8.693.448 2.959.789 4.443 2.835 6.517 4.945 6.083 6.188 13.583 11.463 22.276 13.013 5.848 1.042 12.995.498 17.118-4.334 3.106-3.64 3.081-8.886.426-12.76-1.653-2.411-3.996-3.673-6.481-5.06-3.547-1.979-6.833-4.447-9.692-7.335-2.988-3.019-5.51-6.526-7.158-10.454-.841-2.004-1.292-4.106-1.969-6.162-.631-1.916-1.432-3.777-2.423-5.535-2.493-4.424-6.193-8.239-10.791-10.471-.477-.232-.964-.439-1.459-.627-.065-.024-.265-.053-.309-.107.175.21.141-.402.137-.621-.034-1.759-.058-3.518-.059-5.278-.004-4.921.166-9.841.533-14.749 1.053-14.11 3.706-28.098 7.966-41.593 5.753-18.224 14.448-35.446 25.567-50.983 10.984-15.348 24.245-28.971 38.922-40.809 3.976-3.207 8.056-6.28 12.22-9.238.381-.271.132-.521-.173-.644-.411-.167-1.041.135-1.366.366z"/><path d="m167.003 437.63c-.256-.218-.548-.509-.856-.654-.981-.464-2.162.467-2.993.902-3.553 1.86-7.08 3.772-10.575 5.739-12.958 7.291-25.509 15.338-37.381 24.294-6.106 4.607-12.026 9.459-17.721 14.566-.428.384-.06.567.366.586 14.067.604 25.602 10.637 30.158 23.637.216.617 1.749.023 1.926-.4 7.077-16.927 18.055-32.235 30.425-45.69 3.387-3.684 6.919-7.232 10.598-10.624.165-.099.288-.215.307-.346.656-4.508-.744-9.015-4.254-12.01z"/><path d="m113.176 799.851c-2.51 2.85-6.41 5.44-11.23 7.66-18.87 8.69-51.79 11.7-70.02 2.57-.72-3.49-1.43-8.12-2.1-13.14-1.68-12.44-3.16-27.2-4.11-32.38 26.99 8.79 61.61 3.11 81.5-9.01 1.71 18.31 4.07 34.84 5.96 44.3z" fill="#b2b2b2"/><path d="m112.226 800.031c-5.611 6.252-14.54 9.37-22.447 11.516-8.223 2.232-16.757 3.438-25.271 3.68-8.107.231-16.371-.36-24.196-2.601-1.792-.513-3.556-1.123-5.273-1.851-.782-.331-1.962-.612-2.251-1.469-.334-.992-.412-2.162-.588-3.193-.849-4.955-1.496-9.945-2.122-14.932-1.123-8.939-1.791-18.01-3.396-26.88l-1.879.578c11.109 3.587 22.907 4.738 34.538 4.183 11.339-.541 22.675-2.629 33.384-6.425 5.282-1.872 10.426-4.179 15.224-7.085l-1.699.257c1.389 14.809 3.056 29.7 5.96 44.3.07.351 2.016-.096 1.932-.518-2.904-14.6-4.571-29.491-5.96-44.3-.036-.388-1.532.156-1.699.257-8.577 5.197-18.266 8.482-28.052 10.511-10.967 2.274-22.324 3.005-33.479 1.908-6.213-.611-12.378-1.806-18.323-3.725-.283-.091-1.968.084-1.879.578 1.489 8.232 2.132 16.649 3.155 24.948.661 5.36 1.339 10.723 2.225 16.05.183 1.101.376 2.2.586 3.296.06.312.091 1.04.297 1.286.232.278 1.035.5 1.36.646 1.656.747 3.363 1.376 5.096 1.918 8.04 2.516 16.635 3.201 25.021 3.018 8.834-.192 17.677-1.386 26.235-3.595 4.311-1.113 8.566-2.498 12.649-4.279 4.663-2.034 9.318-4.611 12.752-8.438.214-.239-.72-.148-.761-.142-.388.065-.867.198-1.139.501z"/><path d="m101.946 807.511c-18.87 8.69-51.79 11.7-70.02 2.57-.72-3.49-1.43-8.12-2.1-13.14l16.08-19.17 21.07 18.34 7.5-8.82z" fill="#fff"/><path d="m101.51 806.91c-8.319 3.805-17.429 5.933-26.476 7.081-9.577 1.216-19.425 1.369-28.957-.314-4.694-.829-9.319-2.148-13.6-4.27l.415.415c-.887-4.346-1.511-8.745-2.1-13.14l-.151.567 14.057-16.758 2.023-2.412-1.555.266 18.454 16.063 2.616 2.277c.43.374 1.233.113 1.555-.266l7.5-8.82-1.555.266 24.08 17.725 3.39 2.495c.724.533 2.39-.478 1.48-1.148l-24.08-17.725-3.39-2.495c-.461-.339-1.208-.142-1.555.266l-7.5 8.82 1.555-.266-18.454-16.063-2.616-2.277c-.428-.372-1.235-.115-1.555.266l-8.439 10.061-5.45 6.497-1.747 2.082c-.47.56-.637.759-.531 1.581.378 2.922.814 5.84 1.308 8.745.201 1.183.359 2.406.657 3.569.24.936 1.294 1.161 2.122 1.527 3.791 1.676 7.832 2.77 11.902 3.519 9.288 1.711 18.922 1.674 28.284.624 9.974-1.119 20.025-3.368 29.184-7.557 1.197-.548.138-1.664-.873-1.202z"/><circle cx="93.26" cy="779.756" fill="#f62d00" r="7.333"/><path d="m99.591 780.545c-.286 2.656-2.018 5.104-4.687 5.776s-5.451-.73-6.907-2.974c-1.508-2.325-1.434-5.441.139-7.71 1.53-2.208 4.257-3.118 6.806-2.289 3.022.983 4.899 4.082 4.649 7.197-.069.861 1.882.521 1.941-.208.264-3.298-1.535-6.492-4.608-7.816-3.192-1.375-7.058-.652-9.555 1.766-2.398 2.323-3.132 6.045-1.613 9.051 1.535 3.038 4.862 4.678 8.213 4.302 3.854-.432 7.14-3.385 7.562-7.303.092-.853-1.862-.524-1.941.208z"/><ellipse cx="62.6" cy="721.649" fill="#b2b2b2" rx="61.821" ry="19.62" transform="matrix(.99654959 -.08299953 .08299953 .99654959 -59.685 7.687)"/><ellipse cx="62.6" cy="721.649" fill="#fff" rx="61.821" ry="19.62" transform="matrix(.99654959 -.08299953 .08299953 .99654959 -59.685 7.687)"/><path d="m123.242 716.776c.407 5.707-6.296 9.716-10.557 11.998-8.728 4.675-18.637 7.274-28.3 9.158-12.215 2.382-24.722 3.504-37.165 3.386-10.177-.096-20.588-.912-30.404-3.756-3.368-.976-6.749-2.228-9.717-4.126-2.032-1.3-4.068-3.074-4.84-5.437-1.748-5.35 3.953-9.704 7.871-12.111 7.917-4.864 17.213-7.543 26.205-9.579 12.183-2.758 24.73-4.125 37.214-4.317 10.577-.162 21.342.44 31.662 2.906 3.749.896 7.49 2.051 10.922 3.832 2.342 1.216 4.763 2.812 6.15 5.127.534.892.861 1.884.959 2.918.059.622 2.001.209 1.932-.518-.566-5.946-7.962-9.016-12.776-10.67-9.635-3.312-20.08-4.322-30.207-4.624-12.956-.388-26.016.611-38.771 2.908-10.348 1.863-20.865 4.489-30.33 9.181-3.27 1.621-6.517 3.504-9.178 6.033-1.81 1.72-3.528 3.905-3.854 6.461-.73 5.717 5.517 9.24 9.95 11.102 8.877 3.729 18.858 4.916 28.39 5.481 12.857.761 25.852.025 38.579-1.908 10.954-1.664 22.013-4.168 32.202-8.616 3.629-1.584 7.2-3.437 10.334-5.876 2.142-1.667 4.228-3.734 5.206-6.322.382-1.012.53-2.071.454-3.149-.044-.614-1.984-.214-1.932.518z"/><path d="m115.723 711.334c-2.419-1.451-5.247-2.253-7.971-2.896-8.921-2.106-18.298-2.489-27.428-2.472-11.69.022-23.407.945-34.959 2.729-9.288 1.434-18.671 3.336-27.469 6.715-2.838 1.09-5.705 2.351-8.186 4.13-1.494 1.071-3.211 2.514-3.6 4.417-.88 4.308 5.692 6.334 8.67 7.208 8.206 2.407 17.058 2.896 25.557 3.067 11.693.236 23.433-.521 35.02-2.081 9.797-1.318 19.662-3.149 29.032-6.363 3.169-1.087 6.323-2.33 9.216-4.036 1.797-1.06 3.797-2.411 4.794-4.312.365-.696.542-1.414.491-2.199-.182-1.788-1.729-3.044-3.167-3.906z"/><path d="m12.91 729.303c2.918-7.499 1.999-15.199-.468-22.675-2.277-6.9-5.624-13.622-6.348-20.938-.322-3.255-.19-6.937 1.248-9.939 1.273-2.658 3.39-4.84 5.684-6.648 6.009-4.734 13.485-7.607 20.758-9.736 8.471-2.48 17.2-3.873 26.008-4.331 9.373-.487 18.9-.383 28.178 1.161 7.558 1.257 15.663 3.449 21.587 8.568 1.974 1.705 3.619 3.555 4.153 6.164.51 2.494.203 5.107-.227 7.589-1.126 6.496-3.312 12.76-4.498 19.248-1.165 6.37-1.526 13.29 1.345 19.282.725 1.514 1.628 2.924 2.679 4.231.464.577 2.32-.126 1.784-.792-9.314-11.584-2.56-27.174.177-39.86 1.017-4.716 2.024-10.536-1.453-14.504-4.931-5.626-12.44-8.454-19.543-10.111-9.112-2.125-18.59-2.584-27.916-2.394-9.107.185-18.119 1.082-26.997 3.176-8.01 1.89-16.041 4.57-23.136 8.807-5.065 3.024-10.309 7.286-11.486 13.384-1.445 7.484 1.173 14.812 3.755 21.732 2.717 7.279 5.552 14.848 4.401 22.754-.302 2.073-.869 4.087-1.628 6.038-.278.713 1.669.494 1.941-.206z"/><path d="m271.312 501.254c-4.715-8.894-10.202-17.378-16.319-25.372-5.714-7.467-11.927-14.746-18.894-21.078-4.277-3.887-8.816-7.481-13.48-10.892-2.36-1.726-4.755-3.402-7.176-5.042-1.317-.891-2.641-1.771-3.973-2.639-.673-.438-1.347-.874-2.023-1.307-.129-.083-2.054-1.155-2.054-1.233-.034-.097-.1-.166-.196-.205-2.093-1.048-4.224-2.019-6.413-2.851-1.825-.693-3.869-1.551-5.814-1.825-1.942-.273-4.108-.011-6.056.146-1.963.158-3.915.427-5.849.8-5.525 1.063-10.932 2.936-15.851 5.684-.947.529-1.883 1.087-2.76 1.727-.11.08-.232.267-.193.412 3.496 12.833 5.254 26.125 6.144 39.376.891 13.266.895 26.63-.22 39.883-.51 6.067-1.258 12.128-2.483 18.095-.145.707 1.307.323 1.563.157 9.666-6.25 21.321-8.959 32.698-9.72 8.518-.57 17.137.043 25.492 1.79 17.143 3.583 33.446 12.293 44.034 26.52 6.659 8.948 10.58 19.559 12.191 30.549.099.676 1.817.128 1.931-.382 1.604-7.137 2.236-14.43 2.251-21.736-.05-21.314-6.631-42.146-16.551-60.858z"/><path d="m284.706 540.821c-35.23-18.2-68.76-19.32-91.53-14.94-.05 0-.09.01-.14.02-8.19 1.59-14.98 3.88-19.94 6.35-.17.08-.34.17-.51.26-1.48.75-2.79 1.53-3.92 2.3 1.11-5.35 1.96-11.7 2.53-18.66.38-4.72.63-9.73.74-14.91.16-7.47.01-15.3-.48-23.14-.29-4.73-.7-9.47-1.25-14.13-1.11-9.4-2.74-18.49-4.98-26.65 0 0 11.52-8.43 29.15-7.99 3.76.91 7.81 2.48 12.05 4.62v.01c-11.84-2.59-9.62 8.35 1.62 20.23 1.12 1.17 2.31 2.35 3.59 3.53 4.34 3.99 8.96 7.18 13.37 9.56 14.8 7.98 27.17 6.77 18.01-4.2 8.43 9.13 16.42 19.66 23.22 31.12 2.71 4.56 5.23 9.26 7.5 14.09 4.93 10.41 8.75 21.36 10.97 32.53z" fill="#f62d00"/><path d="m285.617 540.493c-16.038-8.254-33.418-13.88-51.341-16.081-13.743-1.687-27.682-1.387-41.295 1.181-8.613 1.625-17.708 4.252-25.054 9.192l1.692-.144c2.473-12.036 3.209-24.449 3.331-36.712.133-13.281-.624-26.614-2.5-39.766-1.014-7.107-2.368-14.171-4.258-21.1l-.227.285c2.063-1.503 4.443-2.643 6.777-3.644 6.053-2.595 12.653-3.941 19.235-3.995 2.315-.019 4.464.74 6.62 1.533 1.166.429 2.317.897 3.454 1.398.416.183 3.408 1.308 3.408 1.58l1.76-.632c-3.5-.735-9.431-.695-9.658 4.114-.122 2.572 1.13 5.172 2.357 7.352 1.83 3.251 4.194 6.205 6.722 8.936 5.579 6.026 12.241 11.136 19.634 14.736 4.908 2.39 11.156 4.98 16.742 3.875 1.663-.329 3.716-1.122 4.05-3.004.445-2.505-1.678-5.07-3.141-6.846l-1.821.657c15.638 16.977 28.475 36.938 36.319 58.703 2.229 6.185 4.022 12.521 5.316 18.967.08.401 2.025-.052 1.932-.518-4.636-23.094-15.637-44.689-29.741-63.416-3.76-4.993-7.77-9.796-12.004-14.393-.314-.341-2.112.303-1.821.657 1.359 1.65 5.499 7.437 1.239 8.49-2.034.503-4.478-.061-6.454-.546-2.973-.73-5.845-1.858-8.598-3.187-6.168-2.977-11.829-7.008-16.773-11.739-4.451-4.258-8.985-9.26-11.203-15.112-.67-1.767-1.316-4.071-.391-5.868 1.086-2.109 3.813-1.511 5.707-1.114.361.076 1.76-.103 1.76-.632v-.01l-.056-.069c-2.094-1.049-4.225-2.015-6.413-2.851-1.819-.695-3.817-1.527-5.753-1.814-1.964-.291-4.207-.008-6.178.158-1.91.161-3.815.421-5.698.779-5.598 1.064-11.076 2.952-16.068 5.713-.935.517-1.875 1.056-2.74 1.686-.065.047-.26.165-.227.285 3.407 12.495 5.163 25.431 6.069 38.333.904 12.879.972 25.834.037 38.714-.495 6.824-1.275 13.649-2.653 20.355-.109.529 1.515-.026 1.692-.144 6.519-4.384 14.429-6.716 22.047-8.3 6.098-1.268 12.311-1.988 18.531-2.275 15.229-.701 30.562 1.289 45.205 5.483 9.892 2.834 19.46 6.695 28.607 11.403.496.255 2.045-.541 1.821-.657z"/><path d="m197.378 623.129c-6.158-3.018-11.033-8.528-14.235-14.502-4.077-7.607-5.344-16.473-3.711-24.935 1.162-6.019 3.733-11.643 7.052-16.768.575-.888-1.391-.922-1.846-.218-5.636 8.703-8.867 18.9-7.58 29.315.996 8.059 4.658 15.804 10.249 21.694 2.59 2.729 5.571 5.053 8.955 6.711.793.389 2.217-.758 1.116-1.298z"/><path d="m273.737 569.993c.135.011.147 1.56-.11 3.876s-.898 5.376-1.819 8.379c-.979 2.98-2.184 5.911-3.307 8.034-1.091 2.138-1.976 3.525-2.008 3.623-.076.069-.961 1.456-2.444 3.341-1.453 1.91-3.607 4.232-5.899 6.37-2.337 2.096-4.843 3.96-6.836 5.166-1.993 1.205-3.402 1.844-3.469 1.727-.089-.151 1.164-1.042 2.969-2.445 1.807-1.405 4.1-3.411 6.228-5.589 2.084-2.221 4.039-4.564 5.348-6.471 1.338-1.882 2.134-3.244 2.208-3.31.03-.094.931-1.39 2.079-3.395 1.181-1.99 2.489-4.749 3.63-7.576 1.082-2.848 1.942-5.773 2.458-8.005.516-2.229.799-3.741.973-3.724z"/><path d="m476.526 293.911c2.44 12.98-7.34 27.2-21.78 31.87-7.59 32.68-66.17 90.11-148.91 112.77-28.67 7.86-60.25 11.54-93.61 8.56l-5.8-13.15c24.93 2.38 55.58-5.17 84.99-18.72 50.67-23.32 97.68-64.44 105.55-103.24-11.33-19.33-6.11-43.89.12-51.89 6.22-8 23.21-18.67 45.66-12.11 26.67-17.33 39.87 4 34.67 14.67 8.88 8.88 4.88 25.16-.89 31.24z" fill="#fff"/><path d="m475.56 294.17c1.877 10.456-3.946 20.79-12.275 26.809-2.273 1.643-4.753 2.988-7.376 3.981-.867.328-1.886.394-2.204 1.324-.219.638-.339 1.323-.53 1.971-.798 2.712-1.848 5.346-3.045 7.905-6.515 13.919-16.947 26.002-27.85 36.666-14.805 14.48-31.698 26.845-49.586 37.236-20.988 12.192-43.545 21.702-66.957 28.117-26.697 7.315-54.502 10.54-82.163 9.221-3.583-.171-7.161-.419-10.734-.735l.353.187-5.8-13.15-1.579.704c14.539 1.355 29.247-.526 43.395-3.895 16.082-3.831 31.659-9.713 46.553-16.852 26.883-12.887 52.414-30.114 72.948-51.85 8.902-9.423 16.957-19.881 22.724-31.536 2.553-5.159 4.64-10.567 5.99-16.169.149-.617.391-1.298.434-1.932.051-.758-.433-1.304-.797-1.987-.895-1.677-1.684-3.411-2.366-5.185-1.271-3.306-2.17-6.751-2.729-10.247-1.039-6.509-.93-13.215.266-19.695.868-4.705 2.249-9.598 4.826-13.68 2.388-3.781 6.153-6.781 9.938-9.065 5.374-3.244 11.49-5.213 17.743-5.743 3.737-.317 7.501-.139 11.2.465 1.049.171 2.092.377 3.127.618.945.219 1.94.64 2.897.76 1.538.192 2.997-1.272 4.25-1.981 5.279-2.991 11.404-5.253 17.556-4.313 7.77 1.187 14.083 8.164 13.791 16.159-.058 1.574-.423 3.122-1.1 4.545-.028.078-.011.144.053.197 4.301 4.397 5.628 10.672 4.977 16.646-.55 5.048-2.328 10.503-5.847 14.282-.462.497 1.409.313 1.768-.072 4.104-4.408 5.996-10.973 6.157-16.88.093-3.41-.456-6.881-1.938-9.975-.744-1.554-1.737-2.838-2.806-4.172-.465-.58-.243-.725-.012-1.369.172-.48.309-.973.414-1.471 1.939-9.217-5.691-17.607-14.508-18.821-8.069-1.111-16.104 2.472-22.725 6.735l1.537-.331c-10.782-3.096-22.361-2.763-32.694 1.777-6.67 2.93-13.396 7.566-16.765 14.221-4.142 8.183-5.27 18.141-4.568 27.184.447 5.758 1.767 11.462 4.087 16.759.592 1.353 1.321 2.628 1.965 3.953.595 1.224.077 2.453-.248 3.727-.57 2.24-1.257 4.45-2.043 6.624-7.318 20.248-22.284 37.315-38.099 51.485-18.788 16.833-40.43 30.611-63.275 41.246-12.596 5.864-25.674 10.773-39.129 14.269-12.151 3.157-24.701 5.201-37.283 5.108-2.819-.021-5.635-.165-8.442-.426-.25-.023-1.794.216-1.579.704l5.8 13.15c.059.133.222.175.353.187 24.597 2.172 49.447.865 73.689-3.821 21.742-4.203 42.945-11.039 63.108-20.184 18.168-8.241 35.521-18.368 51.525-30.288 13.217-9.844 25.661-20.941 36.28-33.574 7.65-9.101 14.965-19.371 18.596-30.821.339-1.068.637-2.147.893-3.238l-.605.44c13.268-4.381 25.032-17.719 22.393-32.418-.09-.5-2.035-.055-1.932.518z"/><path d="m344.616 620.217h-208.372c-2.823 0-5.663-.089-8.485 0-.032 0-.063 0-.095 0-.075-.01-.156-.003-.235 0h-.033c-.089.006-.175.021-.263.041-.048.011-.096.018-.14.034-.076.025-.143.06-.211.095-2.095.458-3.824 2.61-4.667 4.563-2.028 4.703-2.092 10.654-.597 15.514.769 2.501 2.418 5.524 5.051 5.838.174.11.412.148.638.148h208.372c2.823 0 5.663.089 8.485 0 .121-.004.242 0 .362 0 .358 0 1.071-.316 1.071-.755v-24.889c0-.493-.473-.588-.881-.588z"/><path d="m225.006 467.281c-18.19-.28-36.74 2.8-53.55 10.82-.29-4.73-.7-9.47-1.25-14.13 9.63-5.39 22.65-8.99 37.84-9.78 1.12 1.17 2.31 2.35 3.59 3.53 4.34 3.99 8.96 7.18 13.37 9.56z" fill="#fff"/><path d="m225.369 466.683c-18.635-.258-37.393 2.942-54.309 10.965l1.363.194c-.294-4.721-.701-9.432-1.25-14.13l-.353.596c11.269-6.263 24.349-8.837 37.11-9.526l-.776-.197c5.026 5.224 10.716 9.725 17.092 13.193.611.333 2.368-.533 1.522-.993-3.877-2.109-7.544-4.592-10.927-7.428-1.73-1.451-3.382-2.992-4.968-4.599-.566-.574-.885-1.116-1.708-1.156-1.213-.06-2.503.15-3.713.252-8.122.683-16.217 2.215-23.921 4.908-3.778 1.321-7.437 2.929-10.936 4.874-.218.121-.383.342-.353.596.549 4.698.956 9.41 1.25 14.13.033.534 1.135.302 1.363.194 16.448-7.801 34.668-10.926 52.791-10.675.381.005 1.114-.124 1.27-.548.148-.402-.128-.642-.545-.648z"/><path d="m273.736 508.291c-38.79-4.94-77.95-.57-102.54 7.86.38-4.72.63-9.73.74-14.91 25.05-8.03 57.12-11.52 94.3-7.04 2.71 4.56 5.23 9.26 7.5 14.09z" fill="#fff"/><path d="m274.068 507.579c-28.074-3.547-57.146-2.871-84.874 2.982-6.145 1.297-12.233 2.888-18.178 4.917l1.16.603c.394-4.962.63-9.934.74-14.91l-.799.744c22.581-7.212 46.559-9.62 70.185-8.832 7.89.263 15.765.893 23.603 1.83l-.552-.284c2.682 4.526 5.172 9.162 7.418 13.92.403.855 2.316.296 1.932-.518-1.699-3.6-3.52-7.14-5.471-10.609-.498-.885-1.003-1.766-1.516-2.642-.583-.995-.712-1.242-1.876-1.379-2.088-.246-4.178-.469-6.271-.669-8.002-.763-16.038-1.179-24.076-1.22-14.413-.072-28.846 1.1-43.008 3.811-7.005 1.341-13.933 3.074-20.727 5.244-.309.099-.79.352-.799.744-.11 4.976-.346 9.948-.74 14.91-.047.588.729.75 1.16.603 11.092-3.786 22.67-6.117 34.273-7.655 13.994-1.855 28.16-2.536 42.268-2.131 8.521.245 17.029.896 25.486 1.964.963.122 1.963-1.26.663-1.425z"/><path d="m303.622 429.325c-1.401-2.879-3.116-5.606-5.11-8.112-.899-1.129-1.853-2.216-2.861-3.249-1.049-1.076-2.279-1.976-3.322-3.044-.255-.261-1.232.113-1.462.219-20.918 9.614-43.485 17.041-66.579 18.614-5.679.387-11.393.378-17.063-.151-.216-.021-1.945.208-1.763.618.95 2.154 1.9 4.308 2.85 6.461.675 1.53 1.35 3.061 2.025 4.591.254.577.486 1.622.923 2.092.397.427 1.551.654 2.092.848.832.299 1.671.579 2.515.842 1.803.564 3.63 1.05 5.469 1.482 4.166.978 8.394 1.68 12.637 2.225 17.812 2.286 36.056 2.245 53.94.85 6.265-.489 12.838-.917 18.908-2.671.025-.007.068-.02.118-.034.192-.048.367-.11.506-.188.17-.085.301-.188.27-.306.545-7.264-.906-14.542-4.091-21.087z"/><path d="m476.495 262.581c-2.046 4.781-6.23 8.616-10.24 11.77-3.956 3.112-8.412 6.111-13.229 7.702-1.149.38-.847 1.615.329 1.227 5.153-1.702 9.923-4.795 14.16-8.131s8.658-7.357 10.815-12.396c.418-.977-1.521-.904-1.834-.172z"/><path d="m475.64 293.956c-2.793 3.237-6.023 6.107-9.612 8.436-3.014 1.955-6.538 3.789-10.212 3.831-.592.007-2.09.903-.807.888 4.055-.047 7.986-1.805 11.398-3.869 4.131-2.5 7.848-5.713 11-9.366.446-.517-1.426-.313-1.766.081z"/><path d="m396.002 312.259c1.357 2.406 3.043 4.605 5.014 6.539.855.839 1.758 1.653 2.74 2.342.526.369 2.307-.405 1.534-.948.217.153-.019-.015-.107-.081-.187-.142-.371-.288-.553-.436-.633-.517-1.239-1.067-1.822-1.64-1.897-1.861-3.568-3.977-4.875-6.294-.211-.375-.732-.336-1.099-.237-.198.053-1.035.398-.833.755z"/><path d="m454.398 325.51c-4.247 1.425-8.672 1.891-13.132 1.562-.444-.033-1.009.089-1.366.366-.283.219-.271.464.132.493 5.131.378 10.182-.251 15.059-1.887.201-.067.79-.327.56-.61-.221-.272-1.018-.004-1.253.075z"/><ellipse cx="344.52" cy="633.333" fill="#fff" rx="5.778" ry="12.444"/><path d="m351.264 633.075c-.022-2.721-.364-5.487-1.366-8.034-.631-1.604-1.595-3.387-3.191-4.21-3.241-1.671-6.183 1.426-7.367 4.142-2.078 4.77-2.12 10.932-.494 15.834 1.027 3.096 3.342 6.545 7.053 5.105 4.599-1.783 5.331-8.684 5.364-12.838.004-.479-1.926-.158-1.932.518-.029 3.548-.537 8.285-3.185 10.964-2.495 2.524-4.834-2.593-5.424-4.438-1.308-4.091-1.369-8.75-.31-12.901.5-1.962 2.231-7.353 5.087-5.292 1.429 1.031 2.227 2.832 2.763 4.453.768 2.324 1.05 4.776 1.069 7.215.004.487 1.937.155 1.932-.518z"/><path d="m159.004 260.037c13.037 5.333 25.084 14.92 36.024 28.521s36.074-1.105 27.76-17.842c-14.487-29.161-37.992-41.081-56.043-44.05-22.972-3.778-36.088 21.774-7.741 33.37z" fill="#fff"/><path d="m158.093 260.362c9.199 3.792 17.466 9.491 24.719 16.267 4.09 3.821 7.782 7.986 11.341 12.299 2.039 2.471 4.748 4.227 7.877 4.959 12.268 2.867 27.473-8.946 22.334-22.055-1.812-4.621-4.705-9.053-7.521-13.119-2.65-3.825-5.604-7.444-8.848-10.782-5.725-5.889-12.366-10.884-19.667-14.655-6.149-3.176-12.765-5.508-19.576-6.764-6.38-1.176-13.149-.616-18.807 2.778-4.555 2.733-8.002 7.416-8.045 12.872-.051 6.534 4.748 11.767 9.975 15.05 1.972 1.239 4.068 2.26 6.218 3.15.371.154.882.015 1.241-.121.07-.027.876-.406.582-.528-6.317-2.614-13.078-6.831-15.369-13.666-1.649-4.918-.238-10.214 3.33-13.916 4.299-4.46 10.561-5.966 16.582-5.304 6.328.695 12.651 2.761 18.435 5.357 15.106 6.78 27.369 18.616 35.705 32.829 2.032 3.464 4.367 7.161 4.801 11.24.326 3.061-.429 6.116-1.998 8.75-3.091 5.19-9.14 8.814-15.241 8.51-3.047-.152-5.976-1.301-8.295-3.286-1.625-1.39-2.867-3.177-4.247-4.798-1.715-2.015-3.492-3.976-5.337-5.873-6.577-6.76-14.051-12.72-22.434-17.088-1.935-1.009-3.916-1.925-5.933-2.756-.371-.153-.882-.016-1.241.121-.07.026-.876.407-.582.528z"/><path d="m120.051 320.433c-5.323.869-10.342 3.3-13.586 7.724-2.717 3.706-3.808 8.46-3.034 12.985 1.925 11.254 15.73 18.203 25.843 12.688 5.844-3.187 8.814-9.611 7.874-16.136-.112-.781-2.052-.316-1.932.518.767 5.324-1.213 10.841-5.707 13.97-4.77 3.321-10.868 2.792-15.756.001-3.974-2.268-6.971-5.777-8.114-10.252-1.002-3.921-.493-8.169 1.439-11.728 2.607-4.802 7.458-7.646 12.758-8.511.358-.058 1.057-.258 1.08-.724.021-.443-.502-.593-.866-.534z"/><path d="m124.041 328.842c.57.246-3.185 10.208-3.253 10.366s-4.744 9.713-5.314 9.467c-.571-.246 3.181-10.202 3.249-10.359.068-.158 4.747-9.72 5.318-9.474z"/><path d="m129.781 345.254c-.357.507-9.548-5.346-9.692-5.447s-8.748-6.774-8.391-7.282c.358-.508 9.542 5.341 9.686 5.442s8.755 6.778 8.397 7.287z"/><path d="m208.078 258.192c-1.665-3.489-4.581-6.415-7.31-9.097-5.969-5.865-13.338-11.234-21.409-13.752-2.757-.86-6.896-1.184-8.936 1.373-2.402 3.01 1.341 6.293 3.65 7.832 6.361 4.124 12.714 8.268 18.69 12.943 1.677 1.312 3.324 2.663 4.925 4.066 1.585 1.39 3.035 3.022 4.769 4.226 1.807 1.253 4.605 2.134 6.153-.003 1.556-2.148.48-5.465-.533-7.588z"/><path d="m268.132 754.361c-4.826-7.856-12.418-13.304-21.269-15.759-5.537-1.536-11.314-1.93-17.036-1.7-.302.012-1.094.283-1.089.688.13 9.73.224 19.46.307 29.191.164 19.267.272 38.534.203 57.802-.041 11.495-.09 22.999-.51 34.487-.013.358.307.443.604.479 11.52 1.395 21.066-6.898 27.469-15.548 7.886-10.655 13.038-23.498 16.151-36.317 1.654-6.811 2.734-13.812 2.754-20.832-.021-11.159-1.645-22.822-7.584-32.491z"/><path d="m261.346 835.441c-8.08 14.55-19.21 25.13-31.64 23.52.31-8.37.46-20.68.51-34.29 4.54-.13 9.07.36 13.32 1.43 6.55 1.65 12.82 4.84 17.81 9.34z" fill="#fff"/><path d="m260.451 835.437c-5.944 10.644-16.212 24.71-30.147 23.022l.366.372c.419-11.466.469-22.947.512-34.419l-1.349.778c11.123-.265 22.235 3.149 30.614 10.62.483.43 2.285-.305 1.799-.739-8.651-7.713-20.171-11.193-31.646-10.92-.444.011-1.347.199-1.349.778-.043 11.386-.091 22.781-.507 34.161-.008.228.139.344.366.372 15.269 1.849 26.5-12.142 33.133-24.018.423-.758-1.497-.532-1.79-.008z"/><path d="m90.182 388.665c-.216.074-.462.504-.437.746.055.516.454.851.98.665.202-.071.301-.433.434-.692-.265-.246-.526-.495-.787-.744-.063.007-.122.001-.191.025z"/><path d="m90.653 395.83c-.688-.331-1.229.079-1.528.672-.359.711.082 1.201.677 1.5.695.349 1.175.002 1.502-.627.263-.716-.049-1.255-.65-1.545z"/><path d="m127.983 411.006c-.671-.053-1.227.338-1.305 1.042-.043.392.077.7.309.925.617-.039 1.235-.082 1.852-.132.1-.139.175-.305.186-.536.034-.681-.332-1.244-1.043-1.299z"/><path d="m131.472 409.168c-.133-.019-.267-.039-.4-.058.123.055.258.076.4.058z"/><path d="m135.561 410.897c-.585-.167-.937.207-1.058.705-.058.239-.048.448-.006.638.611-.081 1.221-.162 1.831-.252.002-.01.006-.018.008-.028-.048-.507-.272-.919-.774-1.063z"/><path d="m119.428 411.815c-.119.705.157 1.273.947 1.272.486 0 .853-.338.859-.906-.147-.703-.585-1.125-1.296-1.07-.194.015-.464.437-.509.704z"/><path d="m116.227 407.692c-.221.084-.325.476-.48.727.122.542.492.834 1.001.697.206-.056.452-.5.432-.746-.043-.511-.396-.89-.953-.678z"/><path d="m123.59 408.644c.066.213.498.465.735.439.519-.057.86-.451.656-.985-.032-.085-.118-.149-.216-.208-.242-.059-.487-.113-.728-.175-.424.158-.578.509-.447.929z"/><path d="m86.514 394.183c.743.255 1.236-.066 1.492-.785.115-.764-.289-1.244-.927-1.515-.749-.318-1.273-.014-1.426.769-.14.715.148 1.287.862 1.532z"/><path d="m90.294 403.572c-.712.04-1.261.434-1.158 1.193.068.504.616.629 1.114.61.557-.043.893-.375.904-.899.011-.52-.287-.936-.86-.904z"/><path d="m94.317 394.246c.445-.146.841-.431.722-1.026-.262-.657-.718-1.001-1.431-.754-.456.158-.873.462-.713 1.029.198.705.734.977 1.422.75z"/><path d="m94.703 408.971c.208-.132.253-.522.37-.793-.248-.463-.644-.701-1.107-.435-.204.117-.39.569-.322.79.147.479.584.738 1.059.438z"/><path d="m94.123 401.337c.522-.012.807-.342.892-.849-.068-.77-.576-1.014-1.252-.997-.536.014-.862.364-.872.868-.016.806.573.992 1.233.978z"/><path d="m83.026 403.628c-.199.047-.447.494-.426.737.043.501.373.902.939.676.222-.089.326-.474.461-.687-.072-.613-.483-.843-.974-.726z"/><path d="m84.047 389.794c.143-.54-.119-.978-.627-1.124-.607-.174-.914.271-1.013.785-.097.498.049.956.572 1.191.592.014.93-.333 1.068-.852z"/><path d="m83.285 395.718c-.739-.014-1.268.436-1.278 1.152-.01.712.496 1.139 1.267 1.201.777-.136 1.021-.701.948-1.406-.053-.514-.385-.937-.937-.947z"/><path d="m82.023 381.751c-.077.742.356 1.259 1.07 1.367.541.082.871-.327 1.014-.845 0-.123-.027-.229-.047-.338-.267-.317-.528-.64-.79-.96-.084-.031-.159-.072-.255-.087-.525-.086-.938.343-.993.865z"/><path d="m85.752 385.3c-.192.747.184 1.307.902 1.511.523.148.973-.184 1.111-.675.008-.03.002-.053.008-.082-.444-.462-.884-.929-1.317-1.4-.345.065-.609.277-.704.646z"/><path d="m86.96 407.443c-.102.001-.199.013-.293.03.355.134.703.277 1.062.406-.153-.267-.423-.441-.768-.436z"/><path d="m87.465 402.027c.457-.104.68-.568.594-1.212-.392-.511-.701-1.356-1.694-1.105-.465.118-.753.6-.583 1.079.268.758.723 1.457 1.683 1.238z"/><path d="m107.774 408.695c.076.692.6 1.031 1.299 1.061.715-.14 1.085-.619 1.057-1.302-.032-.777-.654-1.041-1.302-1.009-.713.035-1.13.556-1.054 1.25z"/><path d="m113.31 411.639c-.218.163-.598.312-.612.491-.019.247.181.672.386.745.551.197.905-.139.849-.692-.02-.2-.404-.363-.623-.543z"/><path d="m111.998 403.938c-.29.732.042 1.312.811 1.362.378.024.783-.379 1.075-.535.042-.187.052-.348.038-.489-.541-.23-1.08-.465-1.615-.708-.127.084-.24.195-.309.369z"/><path d="m101.779 401.989c.699-.091 1.098-.612 1.002-1.315-.098-.709-.634-1.014-1.334-1.029-.751.139-1.017.668-.96 1.344.064.75.605 1.089 1.292 1z"/><path d="m101.942 409.76c.511-.021.842-.377.891-.926-.086-.691-.468-1.228-1.142-1.29-.721-.066-1.193.432-1.087 1.163.1.685.644 1.082 1.338 1.053z"/><path d="m97.517 395.63c-.714.218-1.092.755-.935 1.496.161.758.683 1.089 1.452.803.673-.25 1.063-.73.999-1.419-.242-.843-.78-1.104-1.516-.88z"/><path d="m98.312 403.539c-.706-.312-1.17.055-1.376.409-.321.829.073 1.133.492 1.332.702.333 1.241-.027 1.498-.648.203-.492-.165-.894-.614-1.092z"/><path d="m105.356 410.763c-.537.072-.855.501-.853 1.047 0 .078.006.153.014.228.716.109 1.435.206 2.155.299.059-.165.098-.346.111-.542-.175-.758-.681-1.131-1.427-1.032z"/><path d="m104.719 404.1c-.188.516.114.876.642 1.028.262-.145.68-.235.759-.45.192-.522-.12-.941-.646-1.007-.241-.03-.676.212-.754.429z"/><path d="m44.114 352.523c.148.368.694.782 1.08.803.717.039 1.185-.448 1.223-1.23-.196-.725-.675-1.183-1.416-1.038-.731.143-1.184.727-.886 1.465z"/><path d="m45.27 360.804c.727-.006 1.105-.587 1.156-1.326-.152-.788-.686-1.08-1.415-.973-.517.076-.934.406-.9.987.041.711.427 1.318 1.16 1.312z"/><path d="m46.353 366.935c-.086-.524-.482-.922-1.018-.944-.129-.005-.239.024-.353.047.289.701.583 1.4.89 2.091.395-.232.573-.637.481-1.194z"/><path d="m40.342 348.721c.051.701.741 1.004 1.389 1.089.885.116 1.061-.56 1.036-1.206-.028-.719-.508-1.112-1.237-1.163-.685.165-1.237.601-1.188 1.28z"/><path d="m67.894 380.847c-.588-.156-.935.227-1.049.724-.169.734.109 1.298.938 1.274.509-.015.815-.428.91-.945-.068-.501-.292-.918-.799-1.053z"/><path d="m71.544 394.045c.512.066.849-.236.941-.823-.081-.615-.35-1.171-1.113-1.107-.516.043-.689.537-.668 1.003.022.505.357.864.841.927z"/><path d="m71.672 377.122c-.223-.066-.691.104-.783.294-.307.633-.187 1.304.45 1.648.446.242.891-.048 1.189-.557.188-.706-.175-1.184-.856-1.386z"/><path d="m71.986 399.798c-.093-.032-.18-.051-.264-.062.182.124.37.24.553.362-.08-.138-.17-.259-.29-.301z"/><path d="m71.898 386.13c.482-.15.732-.6.443-1.076-.127-.209-.52-.256-.79-.374-.472.242-.718.637-.447 1.106.121.209.576.412.794.343z"/><path d="m79.996 378.282c.072-.575-.245-.936-.752-.879-.401.045-.919.292-1.114.613-.25.412.042.913.506 1.082.732.267 1.128-.176 1.36-.816z"/><path d="m71.885 369.808c-.622-.155-.935.226-1.088.715-.155.495-.09 1.059.439 1.274.755.308 1.265-.072 1.364-.848.066-.511-.243-.91-.715-1.142z"/><path d="m78.994 402.214c.986.115 1.406-.504 1.586-1.367-.143-.645-.373-1.246-1.128-1.351-1.014-.142-1.494.502-1.538 1.364-.032.638.315 1.265 1.08 1.354z"/><path d="m77.993 393.053c-.109.532.237.896.739 1.086.771.064 1.263-.314 1.392-1.042.094-.528-.232-.978-.741-1.072-.761-.141-1.245.323-1.389 1.029z"/><path d="m71.369 362.673c-.215.074-.313.489-.442.71.089.607.478.866.988.703.185-.06.386-.386.424-.631-.108-.239-.214-.479-.319-.718-.172-.116-.396-.152-.651-.064z"/><path d="m66.831 344.323c-.062.127-.104.266-.101.424.007.354.089.698.284.921-.066-.448-.128-.896-.183-1.345z"/><path d="m64.065 357.089c.699-.074 1.108-.625 1.052-1.296-.059-.714-.651-.987-1.321-1.057-.758.119-1.033.644-.993 1.32.044.75.579 1.105 1.262 1.033z"/><path d="m64.462 362.481c-.508-.153-1.045-.03-1.235.482-.278.752.128 1.266.879 1.358.497.061.899-.259 1.086-.761.131-.613-.229-.928-.73-1.079z"/><path d="m67.766 395.861c-.35-.007-.606.123-.779.342.509.415 1.031.815 1.553 1.217.026-.065.057-.126.074-.197.173-.716-.109-1.193-.848-1.361z"/><path d="m68.683 359.815c-.038-.737-.499-1.299-1.272-1.027-.302.106-.536.788-.556 1.219-.025.537.383.873.977.85.534-.144.876-.542.851-1.042z"/><path d="m68.178 367.869c.518-.219.591-.773.42-1.27-.169-.492-.522-.817-.908-.748-.72.253-.926.699-.873 1.203.087.819.624 1.128 1.361.815z"/><path d="m67.658 350.937c-.53 0-.816.446-.892.975.059.514.283.94.795 1.095.447.136.732-.049.9-.349-.146-.548-.286-1.096-.417-1.646-.117-.037-.232-.076-.386-.076z"/><path d="m67.36 388.753c-.206.117-.402.577-.331.79.158.473.603.738 1.08.445.208-.127.249-.526.348-.76-.215-.554-.637-.734-1.098-.475z"/><path d="m69.094 375.032c.05-.692-.315-1.242-1.006-1.365-.743-.132-1.212.31-1.109 1.051.089.638.531 1.104 1.22 1.234.564-.048.859-.434.894-.921z"/><path d="m64.048 347.44c-.55-.002-.93.345-.994.874-.088.73.262 1.324 1.001 1.407.745.085 1.123-.471 1.285-1.157-.073-.784-.568-1.121-1.291-1.124z"/><path d="m60.32 388.168c-.521.068-.72.525-.745 1.03.505.55 1.018 1.093 1.541 1.627.406-.196.559-.667.6-1.237-.084-.789-.449-1.544-1.395-1.42z"/><path d="m77.773 386.004c.045.728.579 1.112 1.271 1.027.693-.084 1.026-.612 1.065-1.307-.16-.714-.658-1.065-1.336-1.03-.771.04-1.041.65-1 1.309z"/><path d="m55.138 348.76c.098.713.693 1.136 1.357 1.228.791.109 1.116-.476 1.252-1.168-.096-.943-.532-1.521-1.56-1.404-.786.09-1.147.629-1.048 1.344z"/><path d="m75.333 375.809c.7-.177 1.063-.672 1.023-1.349-.046-.772-.657-1.021-1.322-.974-.738.053-1.099.588-1.017 1.278.083.706.627 1.008 1.315 1.044z"/><path d="m75.036 388.461c-.529.041-.908.417-.922.957-.018.719.368 1.331 1.093 1.341.71.01 1.098-.57 1.182-1.291-.074-.839-.656-1.061-1.353-1.007z"/><path d="m75.334 383.276c.739-.06 1.023-.591 1.039-1.316-.178-.666-.647-1.057-1.337-.98-.718.081-1.076.639-1.026 1.32.056.758.651 1.031 1.323.977z"/><path d="m75.588 396.008c-1.014-.355-1.457.313-1.609 1.149-.096.528.338.9.835.952.7.073 1.18-.312 1.401-.988.052-.52-.174-.955-.628-1.114z"/><path d="m65.293 393.301c.056-.715-.394-1.182-1.11-1.349-.544.107-.918.384-1.078.831.501.474 1.002.949 1.518 1.408.366-.118.631-.396.67-.891z"/><path d="m63.782 372.066c.685.041 1.244-.33 1.326-1.027.08-.686-.349-1.143-1.073-1.33-.655.018-1.198.3-1.241 1.035-.038.652.21 1.275.988 1.322z"/><path d="m48.735 357.023c.744.115 1.318-.265 1.396-1.006.077-.732-.439-1.163-1.134-1.348-.775.097-1.119.583-1.118 1.317 0 .554.331.956.857 1.037z"/><path d="m47.948 348.688c.066.7.622 1.119 1.289 1.081.712-.041 1.009-.621 1.082-1.297-.077-.794-.647-1.039-1.302-1.019-.732.023-1.134.541-1.068 1.235z"/><path d="m48.946 364.299c.687.006 1.296-.191 1.264-1.018-.02-.503-.386-.831-.926-.893-.658.054-1.299.184-1.254 1.034.027.512.358.873.916.877z"/><path d="m42.673 355.909c-.111-.689-.502-1.212-1.196-1.187-.099.004-.186.038-.278.062.202.761.405 1.52.625 2.272.489-.139.747-.597.849-1.147z"/><path d="m60.338 383.282c.73-.054 1.024-.586 1.045-1.282-.173-.696-.653-1.088-1.331-1.024-.72.067-1.065.642-1.026 1.318.044.767.649 1.036 1.313.987z"/><path d="m57.605 385.742c-.034-.729-.564-1.115-1.258-1.042-.177.019-.334.068-.471.141.481.614.972 1.219 1.472 1.817.193-.241.275-.56.258-.916z"/><path d="m56.137 377.431c-.524 0-.879.379-.907.874-.045.807.526 1.016 1.211 1.026.546-.042.87-.374.908-.875.063-.838-.56-1.025-1.211-1.025z"/><path d="m56.496 369.68c-.668.138-1.215.517-1.227 1.197-.012.678.514 1.192 1.177 1.222.692.031 1.173-.489 1.179-1.179.005-.672-.404-1.145-1.128-1.24z"/><path d="m65.186 378.165c-.333-.602-.801-.96-1.505-.657-.442.19-.829.559-.63 1.077.248.646.782.958 1.481.667.451-.187.758-.529.654-1.087z"/><path d="m64.175 384.646c-.549-.073-1.001.143-1.136.653-.201.76.207 1.308.918 1.516.525.154.981-.18 1.123-.672.222-.764-.195-1.246-.905-1.497z"/><path d="m59.847 353.274c.745.204 1.28-.083 1.518-.848.035-.758-.291-1.34-1.055-1.402-.746-.061-1.224.46-1.306 1.184-.063.553.339.929.844 1.066z"/><path d="m60.336 360.826c.716-.076 1.073-.656 1.033-1.33-.045-.762-.647-.976-1.323-1.005-.741.12-1.096.605-1.013 1.3.084.706.616 1.108 1.304 1.036z"/><path d="m61.359 374.77c.091-.689-.252-1.227-1-1.283-.673-.051-1.266.217-1.326.971-.054.676.294 1.18 1.008 1.35.69-.028 1.226-.336 1.319-1.038z"/><path d="m60.083 366.002c-.771.057-1.132.656-1.037 1.404.068.531.456.903 1.016.907.737.005 1.241-.35 1.347-1.101-.142-.763-.59-1.265-1.326-1.211z"/><path d="m52.823 353.103c.243-.07.526-.327.607-.563.189-.551-.225-.788-.669-.953-.538-.004-.871.275-.83.798.038.485.329.881.893.718z"/><path d="m49.636 372.154c.491-.047.845-.375.808-.954-.125-.666-.496-1.27-1.142-1.327-.72-.064-1.113.516-.993 1.237.116.694.613 1.112 1.327 1.043z"/><path d="m56.8 356.942c.693-.201.968-.717.753-1.399-.142-.449-.437-.815-1.011-.727-.66.256-.97.723-.738 1.418.148.444.417.877.996.708z"/><path d="m53.111 375.66c.485-.068.612-.609.585-1.099-.058-.536-.38-.872-.892-.881-.506-.008-.918.276-.869.847.059.685.436 1.236 1.175 1.133z"/><path d="m56.215 362.444c-.535-.036-.948.348-.992.836-.093 1.035.711 1.32 1.515 1.483.594.121.823-.301.926-.806.027-.993-.544-1.454-1.449-1.514z"/><path d="m52.616 360.85c.81.097.996-.51 1.075-1.121-.042-.55-.325-.92-.81-.993-.855-.127-1.028.532-1.066 1.157-.03.498.319.899.801.957z"/><path d="m52.824 368.077c.242-.07.52-.33.604-.566.2-.56-.227-.783-.667-.949-.537-.004-.871.272-.829.796.039.483.327.883.892.719z"/><path d="m52.998 380.934c.216.315.44.622.66.934-.027-.462-.218-.819-.66-.934z"/><path d="m229.708 737.481c20.743 0 28.741 30.07 28.741 48.111 0 42.097-15.74 74.401-28.741 73.37-18.963-1.503-29.333-42.097-27.852-75.775.69-15.693 10.963-45.706 27.852-45.706z" fill="#fff"/><path d="m229.086 737.893c8.824.058 15.516 6.005 19.78 13.279 4.585 7.82 6.978 16.946 8.061 25.891.596 4.923.626 9.847.449 14.799-.243 6.783-.897 13.554-2.01 20.251-1.782 10.717-4.642 21.487-9.539 31.23-1.785 3.552-3.864 7.022-6.507 10.007-1.79 2.021-3.988 4.106-6.623 4.937-2.664.84-5.776-.24-8.099-1.557-3.286-1.864-5.903-4.759-8.019-7.847-5.634-8.223-8.616-18.238-10.662-27.892-2.434-11.483-3.465-23.31-3.195-35.041.209-9.092 2.179-17.999 5.581-26.433 1.717-4.256 3.809-8.408 6.496-12.14 2.362-3.281 5.304-6.423 8.989-8.211 1.66-.806 3.45-1.259 5.299-1.275.379-.003 1.1-.048 1.366-.366.177-.212.364-.46-.122-.456-8.771.075-15.194 6.65-19.456 13.696-4.989 8.249-8.104 17.893-9.47 27.413-.72 5.017-.729 10.127-.615 15.185.139 6.184.637 12.363 1.501 18.488 1.56 11.069 4.165 22.384 9.305 32.386 3.381 6.579 8.615 13.851 16.482 15.018 6.328.939 11.467-3.742 14.958-8.466 5.99-8.105 9.452-18.09 11.899-27.768 3.212-12.703 4.771-26.088 4.462-39.191-.219-9.317-2.079-18.838-5.729-27.427-3.301-7.768-8.664-15.668-17.077-18.371-2.022-.65-4.14-.949-6.262-.963-.377-.002-1.103.051-1.366.366-.181.217-.361.453.122.456z"/><path d="m32.412 643.111c10.997-2.324 14.79 15.565 14.556 21.821-.197 5.239-.878 17.493-10.878 18.44-9.955.943-14.233-8.523-15.789-17.871-1.189-7.144 1.892-20.231 12.111-22.391z" fill="#fff"/><path d="m32.562 643.669c6.699-1.325 10.376 6.345 11.932 11.568 1.582 5.308 1.857 10.706.915 16.157-.536 3.102-1.515 6.388-3.723 8.731-2.609 2.768-6.801 3.342-10.305 2.079-3.732-1.345-6.182-4.806-7.694-8.315-1.484-3.443-2.562-7.398-2.65-11.165-.176-7.598 3.294-17.216 11.526-19.056 1.19-.266.882-1.381-.299-1.117-8.22 1.837-12.448 10.095-13.09 17.919-.328 3.992.466 7.988 1.749 11.76 1.333 3.921 3.484 7.899 7.127 10.107 3.511 2.128 8.355 2.32 12.047.526 3.286-1.596 5.278-4.673 6.381-8.06 1.874-5.754 1.884-12.243.484-18.092-1.697-7.089-6.005-15.879-14.697-14.16-1.2.237-.881 1.35.299 1.117z"/><path d="m77.652 637.907c8.9.696 14.117 14.291 13.315 24.093-.906 11.074-5.694 22.39-15.372 21.198-9.925-1.222-12.168-10.275-12.35-23.005-.152-10.647 5.308-22.997 14.407-22.285z" fill="#fff"/><path d="m77.31 638.581c7.313.682 10.937 9.518 12.169 15.714.785 3.951.681 7.877.004 11.836-.669 3.914-1.829 7.882-4.001 11.243-1.936 2.995-4.873 5.348-8.593 5.229-3.132-.1-6.219-1.402-8.254-3.814-2.162-2.563-3.118-5.923-3.671-9.169-.682-3.999-.958-8.237-.658-12.286.331-4.469 1.506-9.007 3.837-12.864 1.983-3.282 5.1-6.146 9.167-5.889.904.057 1.99-1.264.684-1.347-8.712-.55-13.423 8.407-14.992 15.738-.971 4.535-.846 9.217-.406 13.811.367 3.837 1.076 7.824 3.085 11.176 3.712 6.194 12.782 8.033 18.413 3.333 3.203-2.674 5.043-6.615 6.226-10.535 1.296-4.297 1.965-8.916 1.595-13.401-.645-7.828-4.722-19.264-13.921-20.123-.909-.085-1.989 1.225-.684 1.347z"/><path d="m52.967 633.894c12.919-1.304 15.063 16.435 15.556 27.662.268 6.096-1.556 23.111-11.556 23.111s-13.459-9.295-15.111-22.444c-1.484-11.81-1.199-27.086 11.111-28.329z" fill="#fff"/><path d="m52.818 634.364c8.943-.809 12.293 9.074 13.582 16.161 1.317 7.241 1.744 14.828.065 22.042-.811 3.487-2.098 7.354-4.813 9.842-2.845 2.607-7.258 2.082-10.34.107-3.431-2.198-5.237-6.143-6.388-9.906-1.446-4.728-2.129-9.735-2.515-14.653-.647-8.249-.471-22.38 10.408-23.593.886-.099 1.648-1.092.298-.942-4.361.486-8.091 2.705-10.21 6.596-2.247 4.127-2.661 9.088-2.636 13.703.028 5.392.682 10.885 1.866 16.143.99 4.394 2.527 9.222 5.996 12.321 2.949 2.635 7.492 3.681 11.298 2.554 3.76-1.114 6.11-4.389 7.531-7.869 3.045-7.456 2.879-15.8 1.867-23.645-.636-4.928-1.688-10.129-4.421-14.366-2.583-4.006-6.564-5.864-11.291-5.436-.892.081-1.648 1.064-.298.942z"/><path d="m328.357 0c.621 0 1.125 307.037 1.125 311.996s-.504 311.781-1.125 311.781-1.125-306.822-1.125-311.781.503-311.996 1.125-311.996z"/><path d="m176.209 212.741c.463-15.111-.987-35.257-15.834-36.148-14.815-.889-32 10.37-40.593 18.963 24.296 12.148 56.426 17.185 56.426 17.185z" fill="#f62d00"/><path d="m177.189 212.674c.172-5.794.089-11.641-.801-17.379-.783-5.055-2.215-10.467-5.604-14.444-3.578-4.199-8.633-5.317-13.954-4.975-7.038.453-13.868 3.031-20.041 6.326-6.5 3.469-12.591 7.853-17.819 13.051-.353.351-.106.789.26.972 16.356 8.142 34.431 13.067 52.329 16.471 1.437.273 2.876.542 4.321.769.98.154 1.951-1.244.657-1.448-13.443-2.113-26.845-5.651-39.657-10.194-5.639-2-11.187-4.268-16.545-6.936l.26.972c4.348-4.324 9.368-8.047 14.661-11.13 5.841-3.403 12.28-6.228 19.025-7.148 5.122-.699 10.48-.4 14.232 3.57 3.335 3.529 4.82 8.459 5.683 13.127 1.127 6.096 1.216 12.351 1.032 18.53-.031 1.032 1.934.772 1.961-.134z"/><path d="m152.376 295.411c-11.79 15.12-45.51 39.14-79.39 48.66-12.4 3.5-24.83 5.05-36.2 3.5h-.01c-3.24-.43-6.423-1.05-9.44-2.09-8.591-2.963-20.95-50.91-3.01-92.78 12.43-29.05 37.47-55.68 82.38-63.91 5.27-.97 10.81-1.68 16.63-2.12 10.36-.78 44.45 11.85 51.26 20.44 5.76 7.27-4.44 65.48-22.22 88.3z" fill="#f62d00"/><path d="m151.489 295.435c-4.738 6.045-10.637 11.185-16.649 15.92-7.999 6.3-16.552 11.901-25.441 16.86-9.662 5.391-19.773 10.038-30.274 13.543-11.457 3.824-23.593 6.383-35.724 5.882-2.788-.115-5.569-.416-8.32-.875-2.375-.396-5.175-.758-7.343-1.867-1.466-.75-2.518-2.327-3.336-3.697-3.148-5.269-4.751-11.543-5.965-17.501-3.885-19.072-3.057-39.453 2.259-58.162 4.671-16.437 13.194-31.91 24.878-44.407 12.341-13.2 28.162-22.648 45.361-28.043 5.119-1.606 10.34-2.879 15.617-3.848 5.518-1.013 11.214-1.917 16.827-2.123 2.614-.096 5.267.427 7.81.974 3.485.75 6.918 1.748 10.307 2.849 7.415 2.409 14.733 5.329 21.629 8.981 2.774 1.469 5.527 3.07 7.981 5.038 1.352 1.085 2.726 2.257 3.295 3.94 1.386 4.105.926 9.031.61 13.261-.521 6.966-1.658 13.89-3.079 20.725-3.162 15.215-7.651 30.709-15.164 44.392-1.56 2.841-3.291 5.591-5.277 8.155-.459.592 1.439.387 1.775-.047 4.4-5.678 7.637-12.229 10.384-18.836 3.191-7.678 5.716-15.634 7.803-23.679 1.965-7.574 3.552-15.26 4.615-23.014.777-5.666 1.427-11.509.998-17.233-.124-1.658-.301-3.459-1.025-4.982-.853-1.796-2.732-3.146-4.294-4.28-5.926-4.302-12.87-7.33-19.645-10.01-6.967-2.756-14.194-5.207-21.578-6.563-2.944-.541-5.74-.694-8.719-.435-5.853.508-11.679 1.304-17.439 2.466-18.924 3.819-37.095 11.597-51.91 24.126-12.424 10.507-22.079 23.946-28.616 38.813-8.513 19.362-11.213 41.219-8.921 62.18.828 7.573 2.253 15.238 5 22.371.901 2.339 1.953 4.669 3.405 6.724 1.166 1.652 2.388 2.626 4.32 3.223 11.259 3.479 23.756 2.838 35.191.644 11.399-2.186 22.458-6.046 33.013-10.835 9.93-4.506 19.48-9.842 28.559-15.881 7.745-5.152 15.216-10.817 21.933-17.265 2.462-2.363 4.821-4.845 6.928-7.533.461-.588-1.436-.385-1.775.047z"/><path d="m48.376 255.701c-5.89 20.05 11.54 68.72 24.61 88.37-12.4 3.5-24.83 5.05-36.2 3.5h-.01c-12.87-27.99-16.68-83.16-12.45-94.87 12.43-29.05 37.47-55.68 82.38-63.91-27.83 15.97-49.5 36.86-58.33 66.91z" fill="#f62d00"/><path d="m47.399 255.778c-1.357 4.701-1.339 9.728-.992 14.569.45 6.28 1.62 12.504 3.089 18.618 3.208 13.358 7.861 26.447 13.616 38.916 2.636 5.712 5.511 11.362 8.99 16.613l.711-1.073c-6.121 1.715-12.359 3.021-18.69 3.646-2.911.287-5.839.435-8.765.406-1.569-.015-3.139-.088-4.703-.213-1.25-.1-2.538-.384-3.789-.384l.877.437c-5.662-12.374-8.583-26.03-10.738-39.4-2.124-13.18-3.46-26.609-3.346-39.97.036-4.286.149-8.672.997-12.887.422-2.096 1.323-3.969 2.228-5.9 1.358-2.897 2.834-5.738 4.431-8.51 6.762-11.741 15.746-22.159 26.532-30.378 12.524-9.543 27.175-15.892 42.466-19.459 2.178-.508 4.369-.959 6.568-1.366l-.599-1.209c-20.68 11.892-39.75 27.57-51.227 48.854-3.206 5.945-5.74 12.217-7.656 18.691-.263.89 1.711.673 1.956-.153 3.333-11.263 8.728-21.844 15.853-31.18 7.003-9.176 15.505-17.099 24.771-23.949 5.487-4.056 11.239-7.744 17.153-11.145 1.001-.576.386-1.391-.599-1.209-16.04 2.964-31.6 8.684-45.17 17.829-11.526 7.767-21.322 17.886-28.879 29.539-1.786 2.753-3.445 5.588-4.979 8.489-1.478 2.797-3.013 5.683-4.119 8.652-1.277 3.43-1.408 7.392-1.569 11.004-.574 12.883.59 25.926 2.346 38.678 1.927 13.995 4.678 28.194 9.892 41.375.55 1.39 1.135 2.765 1.757 4.125.169.369.501.437.877.437 1.36 0 2.812.35 4.185.442 1.434.096 2.87.143 4.307.156 3.083.027 6.166-.135 9.232-.454 6.346-.659 12.61-1.969 18.749-3.689.425-.119 1.046-.567.711-1.073-6.659-10.048-11.461-21.435-15.583-32.717-4.532-12.4-8.362-25.372-9.725-38.547-.571-5.525-.766-11.369.791-16.76.258-.894-1.716-.675-1.956.153z"/><path d="m84.966 613.631c-4.284-2.149-10.379-3.124-10.379-3.124" fill="#b2b2b2"/><path d="m84.966 614.131c-.075 0-.152-.017-.224-.053-4.163-2.088-10.174-3.067-10.234-3.077-.272-.043-.458-.3-.415-.573.043-.272.293-.459.573-.415.252.04 6.221 1.012 10.524 3.17.247.124.347.424.223.671-.087.175-.264.276-.447.276z"/><path d="m33.856 613.331c3.295-2.263 8.087-3.698 8.087-3.698" fill="#b2b2b2"/><path d="m33.857 613.831c-.159 0-.316-.076-.413-.217-.156-.228-.099-.539.129-.695 3.322-2.282 8.028-3.706 8.227-3.765.265-.078.543.071.623.335.079.265-.071.543-.335.623-.047.014-4.757 1.44-7.948 3.631-.086.06-.185.088-.283.088z"/><path d="m414.765 269.252c12.425 1.001 26.866-.985 35.776-10.576.806-.868-1.059-1.04-1.59-.469-8.347 8.985-21.865 10.7-33.484 9.764-.865-.07-2.007 1.176-.702 1.281z"/><path d="m243.093 763.946c-.077.15-.964-.154-2.282-.562-1.318-.414-3.096-.859-4.895-1.173-1.809-.271-3.627-.439-5.012-.437-1.382-.02-2.321.049-2.379.034-.057.016-.998-.014-2.377.06-1.382.054-3.192.291-4.987.634-1.783.387-3.541.901-4.84 1.369-1.299.461-2.172.801-2.255.655-.072-.122.661-.725 1.887-1.449 1.225-.73 2.974-1.503 4.8-2.112 1.835-.565 3.734-.984 5.196-1.16 1.459-.195 2.469-.229 2.53-.245.061.015 1.073.007 2.539.146 1.469.117 3.384.463 5.241.954 1.85.535 3.63 1.238 4.884 1.917 1.256.675 2.013 1.246 1.947 1.371z"/><path d="m243.53 788.223c-.047.157-1 .017-2.411-.194-1.411-.212-3.292-.448-5.18-.592-1.891-.116-3.785-.166-5.221-.111-1.435.038-2.409.123-2.469.113-.059.013-1.037.008-2.469.082-1.434.06-3.317.257-5.192.523-1.868.295-3.723.678-5.112 1.004-1.388.323-2.326.54-2.385.387-.054-.136.78-.63 2.111-1.219 1.33-.59 3.172-1.222 5.064-1.73 1.897-.479 3.836-.851 5.323-1.03 1.485-.193 2.509-.253 2.571-.266.063.01 1.089-.015 2.585.062 1.497.059 3.461.279 5.391.605 1.928.355 3.815.84 5.189 1.32 1.375.48 2.247.905 2.204 1.045z"/><path d="m240.36 811.81c-.112.294-2.979-.462-5.908-.693-1.464-.111-2.928-.165-4.039-.127-1.109.024-1.862.09-1.908.081-.046.011-.801-.009-1.908.031-1.109.028-2.567.168-4.021.366-2.908.405-5.722 1.333-5.851 1.046-.133-.275 2.531-1.76 5.511-2.6 1.482-.413 3.007-.729 4.177-.876 1.169-.16 1.977-.205 2.025-.216.049.009.859.004 2.036.096 1.178.077 2.719.304 4.224.627 3.027.661 5.778 1.982 5.661 2.264z"/><path d="m238.668 833.859c-.123.288-2.352-.321-4.619-.49-1.135-.081-2.265-.118-3.121-.079-.855.026-1.434.085-1.47.077-.035.009-.616-.015-1.471.007-.856.011-1.982.111-3.109.258-2.252.3-4.439 1.039-4.579.758-.144-.27 1.882-1.567 4.215-2.307 1.158-.364 2.357-.641 3.281-.773.922-.142 1.561-.183 1.599-.192.039.008.68.01 1.609.1.93.078 2.143.288 3.321.584 2.373.604 4.473 1.779 4.345 2.057z"/><path d="m362.178 125.772h-8.976c-3.615 0-7.313-.328-10.601 1.508-2.407 1.344-4.304 3.674-4.778 6.429-.154.897-.12 1.817-.12 2.724v20.807c0 3.04-.015 5.897 2.2 8.347 2.247 2.485 6.443 3.431 9.483 4.565l40.207 14.991 33.115 12.346c1.916.714 3.659 1.587 5.011 3.217 2.132 2.571 2.17 5.584 2.17 8.704v22.81c0 1.096 3.864.402 3.864-1.035v-17.649c0-2.516.016-5.033 0-7.548-.028-4.442-2.78-8.306-6.907-9.916-8.76-3.415-17.63-6.573-26.439-9.858l-42.312-15.775-11.07-4.127c-2.718-1.013-4.802-2.966-5.333-5.942-.378-2.118-.124-4.453-.124-6.588 0-6.423-.112-12.857 0-19.279.033-1.922.686-3.808 2.065-5.183 1.125-1.122 2.376-1.462 3.899-1.462h13.116c.811 0 2.096-.277 2.556-1.033s-.393-1.052-1.025-1.052z"/><path d="m511.556 126.811c0 .26 0 .51-.01.77-.18 10.77-4.28 19.38-9.32 19.38h-140.81c-5.16 0-9.34-9.02-9.34-20.15 0-1.12.04-2.23.13-3.3.72-9.55 4.57-16.84 9.21-16.84h140.81c5.16 0 9.33 9.02 9.33 20.14z" fill="#fff"/><path d="m510.577 126.883c-.018 5.676-.819 12.581-4.544 17.157-1.121 1.377-2.418 2.202-4.176 2.207-2.584.007-5.169 0-7.753 0-11.969 0-23.938 0-35.908 0h-46.891c-12.787 0-25.573 0-38.36 0h-9.912c-.506 0-1.019.026-1.525 0-4.076-.206-6.244-6.087-7.16-9.403-1.776-6.433-1.782-13.616-.074-20.064.863-3.258 2.897-9.269 7.078-9.394 1.876-.056 3.762 0 5.639 0h132.1c.886 0 1.773-.008 2.659 0 1.851.017 3.375 1.206 4.526 2.753 3.438 4.623 4.272 11.159 4.3 16.744.005 1.018 1.963.735 1.958-.143-.029-5.799-.877-12.372-4.327-17.23-1.479-2.083-3.477-3.535-6.087-3.553-2.348-.017-4.696 0-7.043 0h-132.521c-.808 0-1.597-.026-2.392.176-4.73 1.201-6.895 6.983-7.946 11.172-1.646 6.563-1.583 13.906.3 20.415 1.103 3.814 3.4 9.287 7.942 9.906 1.853.252 3.852.05 5.711.05h33.531 47.787 40.955 11.326c.737 0 1.475.012 2.212 0 2.718-.043 4.857-1.784 6.331-3.951 3.298-4.848 4.202-11.253 4.221-16.985.003-1.017-1.955-.736-1.958.143z"/><path d="m439.688 223.566c-2.066-.11-4.159-.013-6.226-.013-5.327 0-12.528-1.2-15.88 4.072-1.067 1.678-1.212 3.485-1.212 5.393v36.002c0 .127.286.181.353.184 6.976.343 14.049-.322 20.689-2.571 3.07-1.04 6.033-2.452 8.702-4.298 1.16-.802 1.148-.847 1.148-2.03v-28.993c-.094-4.191-3.398-7.521-7.575-7.745z"/><path d="m511.556 126.811c0 .26 0 .51-.01.77-4.28.31-8.94-1-13.01-2.65-6.44-2.59-13.28-5.9-20-4.2-3.2.81-6.58 2.71-9.56 1.29-2.13-1.01-3.3-3.49-5.46-4.43-3.64-1.59-7.33 1.85-11.09 3.13-7.39 2.51-15.81-3.61-23.05-.69-6.19 2.49-9.75 11.01-16.42 10.58-6.65-.42-9.68-9.64-16.22-10.9-5.22-1-9.72 3.47-13.26 7.42-3.55 3.96-8.46 8.17-13.52 6.56-4.21-1.33-6.25-6.1-9.89-8.59-2.27-1.54-5.17-2.1-7.86-1.59.72-9.55 4.57-16.84 9.21-16.84h140.81c5.16 0 9.33 9.02 9.33 20.14z" fill="#f62d00"/><path d="m372.232 134.547c-.824 0-1.633-.126-2.427-.379-2.618-.827-4.433-2.909-6.188-4.922-1.177-1.351-2.395-2.747-3.833-3.731-2.145-1.455-4.874-2.008-7.484-1.512-.155.031-.311-.015-.426-.119-.116-.104-.177-.255-.166-.41.756-10.025 4.839-17.302 9.708-17.302h140.81c5.512 0 9.83 9.066 9.83 20.64 0 .267 0 .523-.011.79-.01.254-.209.461-.463.479-3.725.271-8.174-.634-13.234-2.685-.648-.261-1.301-.529-1.958-.799-5.824-2.393-11.848-4.87-17.731-3.379-.764.193-1.562.458-2.334.714-2.523.836-5.132 1.701-7.563.542-1.126-.534-1.984-1.429-2.814-2.294-.833-.869-1.62-1.689-2.63-2.129-2.311-1.008-4.705.232-7.238 1.545-1.135.588-2.308 1.197-3.491 1.599-3.746 1.273-7.733.408-11.589-.427-4.051-.877-7.878-1.708-11.435-.272-2.494 1.003-4.599 3.075-6.636 5.079-2.899 2.853-5.893 5.807-10.003 5.537-3.65-.23-6.25-2.953-8.765-5.586-2.229-2.333-4.533-4.747-7.518-5.322-4.714-.902-8.934 2.958-12.792 7.263-4.253 4.744-8.078 7.083-11.617 7.083zm-18.042-11.722c2.195 0 4.359.644 6.156 1.863 1.546 1.057 2.806 2.502 4.024 3.9 1.741 1.997 3.385 3.883 5.736 4.626 3.792 1.206 8.044-.893 12.997-6.417 4.055-4.524 8.526-8.572 13.726-7.577 3.298.635 5.715 3.166 8.052 5.613 2.492 2.609 4.845 5.073 8.106 5.279 3.653.231 6.37-2.43 9.238-5.251 2.106-2.073 4.285-4.216 6.963-5.293 3.842-1.55 7.999-.648 12.021.223 3.722.807 7.572 1.642 11.056.458 1.111-.378 2.25-.969 3.352-1.541 2.63-1.363 5.348-2.774 8.099-1.574 1.193.519 2.087 1.451 2.952 2.353.803.837 1.562 1.628 2.522 2.083 2.071.987 4.377.222 6.819-.588.789-.262 1.604-.532 2.404-.735 6.205-1.568 12.382.97 18.356 3.424.654.269 1.306.537 1.953.797 4.71 1.91 8.857 2.798 12.333 2.642 0-.099 0-.197 0-.298 0-10.83-3.961-19.64-8.83-19.64h-140.81c-4.166 0-7.837 6.725-8.659 15.746.477-.062.956-.092 1.433-.092z"/><path d="m150.792 409.387c-.219 0-.42-.145-.481-.367-.074-.266.083-.542.349-.615 6.898-1.91 12.163-4.811 12.215-4.839.241-.135.546-.047.68.194s.047.546-.194.68c-.053.03-5.416 2.986-12.434 4.929-.044.012-.089.018-.134.018z"/><circle cx="187.325" cy="253.731" fill="#fff" r="8.935"/><path d="m72.185 253.802c-.693-.972-1.356-1.952-1.982-2.941-1.714-2.705-2.606-6.277-1.082-9.093 1.49-2.754 4.956-3.995 8.066-3.633s5.912 2.038 8.409 3.927c17.284 13.068 31.677 28.295 41.248 47.979 1.504 3.094 2.568 8.282-2.026 9.411-2.24.55-4.571-.325-6.637-1.353-10.143-5.046-18.361-13.142-25.865-21.471-6.509-7.224-14.368-14.745-20.131-22.826z" fill="#f62d00"/><path d="m73.088 253.446c-1.737-2.451-3.578-5.034-3.764-8.14-.169-2.834 1.314-5.461 4.069-6.396 5.71-1.939 11.443 3.528 15.506 6.778 8.585 6.868 16.566 14.527 23.415 23.142 3.487 4.386 6.672 9.011 9.496 13.851 1.415 2.425 2.756 4.901 3.976 7.431.797 1.652 1.446 3.506 1.377 5.367-.276 7.46-10.272 1.234-13.298-.691-4.94-3.143-9.412-6.967-13.576-11.069-4.746-4.675-9.126-9.716-13.695-14.561-4.739-5.025-9.472-10.091-13.506-15.713-.321-.448-2.19.177-1.806.711 4.034 5.622 8.767 10.688 13.506 15.713 4.569 4.845 8.948 9.888 13.695 14.561 4.571 4.499 9.512 8.673 15.033 11.966 2.603 1.553 5.499 3.353 8.578 3.656 2.151.212 4.82-.381 6.15-2.236 2.688-3.747-1.026-9.367-2.796-12.625-2.883-5.305-6.189-10.38-9.852-15.179-7.415-9.714-16.274-18.238-25.851-25.8-4.944-3.904-10.768-8.457-17.398-5.813-2.799 1.116-4.841 3.423-4.964 6.519-.141 3.54 1.948 6.484 3.899 9.238.318.448 2.188-.173 1.806-.711z"/><path d="m100.668 227.285c-1.018-1.704-1.998-3.495-2.269-5.462s.305-4.165 1.901-5.346c2.53-1.871 6.094-.461 8.833 1.09 14.307 8.104 26.969 19.098 37 32.126 2.681 3.482 5.174 8.522 2.405 11.934-1.765 2.174-5.074 2.535-7.715 1.604-7.474-2.635-15.715-8.971-21.708-14.106-7.267-6.227-13.537-13.624-18.448-21.841z" fill="#f62d00"/><path d="m101.559 226.886c-1.2-2.023-2.452-4.311-2.22-6.749s1.823-4.233 4.386-3.874c2.283.32 4.343 1.615 6.293 2.76 2 1.174 3.966 2.405 5.896 3.69 7.733 5.149 14.872 11.176 21.254 17.927 3.13 3.311 6.278 6.784 8.867 10.542 2.059 2.989 4.876 9.215.217 11.424-2.031.963-4.236.333-6.194-.467-2.112-.862-4.137-1.936-6.095-3.102-4.081-2.432-7.904-5.292-11.57-8.306-8.237-6.772-15.331-14.691-20.833-23.845-.379-.63-2.247.026-1.783.798 5.576 9.276 12.784 17.26 21.145 24.101 4.09 3.347 8.361 6.532 12.985 9.109 3.714 2.07 8.187 4.486 12.513 2.916 1.928-.699 3.502-2.16 4.075-4.165.63-2.201-.1-4.586-1.082-6.565-1.108-2.233-2.657-4.174-4.218-6.103-1.635-2.021-3.335-3.99-5.095-5.903-7.077-7.694-15.134-14.497-23.904-20.187-2.427-1.575-4.903-3.18-7.5-4.461-2.174-1.073-4.67-1.875-7.09-1.218-2.259.613-3.825 2.48-4.168 4.776-.417 2.797.958 5.374 2.338 7.7.375.631 2.243-.023 1.783-.798z"/><path d="m125.667 209.104c-1.596-2.153-3.072-5.001-1.849-7.386.863-1.682 2.882-2.521 4.772-2.487s3.688.786 5.4 1.589c8.231 3.86 15.769 9.194 22.147 15.672 1.594 1.619 3.192 3.466 3.465 5.722 1.116 9.217-10.236 5.246-14.492 3.048-7.609-3.93-14.324-9.25-19.443-16.158z" fill="#f62d00"/><path d="m126.557 208.702c-.995-1.371-1.957-2.902-2.176-4.619-.263-2.056.98-3.797 3.032-4.16 1.852-.327 3.774.474 5.424 1.223 1.708.776 3.381 1.638 5.021 2.548 6.38 3.539 12.281 7.984 17.388 13.198 2.14 2.185 4.077 4.84 3.309 8.071-.389 1.638-1.602 2.355-3.214 2.428-3.923.179-7.961-1.762-11.298-3.621-6.799-3.787-12.818-8.825-17.486-15.069-.456-.61-2.315.09-1.781.803 4.813 6.438 11.083 11.631 18.116 15.49 3.806 2.088 8.601 4.231 13.05 3.553 1.985-.302 3.809-1.361 4.442-3.36 1.014-3.2-.657-6.237-2.796-8.518-5.773-6.154-12.829-11.268-20.317-15.122-3.612-1.859-7.993-4.196-12.013-2.118-1.632.844-2.817 2.354-2.864 4.241-.053 2.155 1.16 4.15 2.382 5.833.447.615 2.306-.08 1.781-.803z"/><path d="m110.056 262.438c-3.656-4.09-7.567-7.95-11.663-11.6-4.088-3.642-8.335-7.332-12.892-10.379-4.644-3.106-11.496-4.605-15.724.09-.599.665.437.802.917.689 5.842-1.374 11.159 3.73 15.33 7.083 4.151 3.336 8.158 6.854 11.963 10.581 7.502 7.347 14.196 15.526 19.652 24.507 1.571 2.585 3.036 5.233 4.394 7.938 1.266 2.521 2.646 5.551 1.482 8.366-.177.43.657.463.843.448 2.34-.193 4.655-1.363 5.282-3.781.567-2.185-.184-4.627-1.12-6.598-4.851-9.932-11.102-19.106-18.466-27.345z"/><path d="m130.042 230.703c-3.142-2.682-6.416-5.211-9.807-7.571-3.454-2.404-7.044-4.83-10.824-6.695-3.482-1.718-8.227-2.436-10.547 1.45-.229.384.196.649.545.649 2.445.001 4.615 1.209 6.676 2.4 1.886 1.09 3.743 2.23 5.568 3.419 3.721 2.423 7.313 5.046 10.749 7.86 6.741 5.521 12.901 11.75 18.335 18.561 2.611 3.272 6.676 8.48 3.947 12.782-.319.503.445.707.791.642 3.067-.575 5.801-2.572 5.947-5.926.144-3.302-1.762-6.438-3.686-8.973-5.244-6.787-11.171-13.029-17.695-18.598z"/><path d="m161.28 221.955c-.612-3.908-4.507-6.904-7.289-9.371-3.24-2.872-6.722-5.47-10.397-7.758-1.837-1.145-3.723-2.211-5.65-3.197-1.828-.934-3.716-1.932-5.709-2.459-2.973-.787-6.868-.204-8.596 2.617-.153.25.469.237.538.231 2.154-.18 4.196.763 6.095 1.666 1.564.744 3.102 1.542 4.612 2.39 3.145 1.767 6.166 3.756 9.033 5.946 2.865 2.189 5.588 4.575 8.112 7.151 2.342 2.391 4.45 5.522 3.091 8.997-.103.262.422.241.538.231 1.502-.125 3.143-.506 4.295-1.543 1.387-1.248 1.509-3.16 1.329-4.901z"/><path d="m342.606 713.297c.296.072-.644 4.81-2.202 9.439-.782 2.308-1.657 4.601-2.4 6.308-.731 1.712-1.287 2.857-1.314 2.931-.044.065-.635 1.191-1.579 2.794-.932 1.61-2.259 3.672-3.653 5.67-2.801 3.997-6.056 7.562-6.289 7.367-.245-.2 2.543-4.087 4.952-8.229 1.2-2.074 2.359-4.175 3.172-5.804.825-1.622 1.346-2.748 1.389-2.812.026-.072.624-1.161 1.441-2.788.829-1.622 1.835-3.802 2.793-6 1.907-4.399 3.383-8.953 3.689-8.875z"/><path d="m222.135 866.427c-.017.136-.955.169-2.353-.04s-3.222-.759-4.968-1.55c-1.718-.835-3.365-1.864-4.498-2.8-1.15-.912-1.852-1.64-1.908-1.669-.025-.059-.719-.793-1.572-1.987-.879-1.175-1.824-2.871-2.574-4.626-.705-1.781-1.164-3.629-1.304-5.034-.139-1.405-.062-2.34.075-2.35.172-.016.39.881.782 2.172.393 1.295 1.054 2.961 1.886 4.535.88 1.551 1.88 3.024 2.773 4.034.868 1.026 1.541 1.65 1.563 1.705.053.026.645.728 1.627 1.646.966.942 2.388 2.015 3.896 2.97 1.533.908 3.165 1.651 4.44 2.107 1.271.454 2.157.717 2.133.887z"/><path d="m375.191 335.713c.279.125-1.01 3.564-2.79 6.827-.891 1.626-1.857 3.225-2.648 4.401-.783 1.181-1.36 1.96-1.391 2.011-.042.042-.654.793-1.606 1.842-.944 1.056-2.255 2.385-3.611 3.648-2.723 2.526-5.737 4.621-5.926 4.381-.198-.245 2.422-2.748 4.786-5.491 1.18-1.374 2.332-2.772 3.161-3.868.824-1.098 1.386-1.847 1.42-1.893.036-.045.624-.775 1.486-1.844.859-1.074 1.931-2.536 2.973-4.019 2.077-2.969 3.86-6.127 4.146-5.995z"/><path d="m487.926 287.995c-.146-.081.104-.823.444-1.915.341-1.094.71-2.563.951-4.05.204-1.495.312-2.994.272-4.132-.019-1.136-.107-1.905-.095-1.952-.018-.046-.008-.82-.107-1.95-.077-1.135-.34-2.614-.697-4.078-.392-1.453-.91-2.875-1.362-3.928-.45-1.05-.775-1.762-.638-1.857.117-.083.691.466 1.4 1.426s1.49 2.363 2.109 3.855c.584 1.502 1.037 3.075 1.241 4.298.227 1.218.283 2.069.301 2.119-.012.052.018.904-.08 2.14-.077 1.238-.365 2.851-.792 4.406-.463 1.55-1.095 3.026-1.701 4.055-.607 1.029-1.122 1.635-1.246 1.564z"/><path d="m444.898 361.574c.255.167-2.314 4.462-5.413 8.46-1.551 1.993-3.181 3.941-4.481 5.365-1.291 1.432-2.216 2.371-2.267 2.434-.064.05-1.018.958-2.472 2.222-1.445 1.274-3.422 2.869-5.44 4.383-4.049 3.026-8.385 5.518-8.547 5.26-.172-.265 3.822-3.208 7.549-6.499 1.861-1.649 3.692-3.337 5.033-4.668 1.334-1.336 2.245-2.248 2.301-2.304.057-.055.985-.95 2.345-2.261 1.356-1.318 3.077-3.121 4.76-4.953 3.358-3.671 6.372-7.616 6.634-7.439z"/><path d="m518.03 104.068c-.621 0-1.125-16.179-1.125-16.44s.504-16.429 1.125-16.429 1.125 16.168 1.125 16.429-.504 16.44-1.125 16.44z"/><path d="m353.291 95.854c-.621 0-1.125-9.247-1.125-9.396s.504-9.39 1.125-9.39 1.125 9.241 1.125 9.39-.504 9.396-1.125 9.396z"/><path d="m344.291 115.427c-.621 0-1.125-12.718-1.125-12.923s.504-12.915 1.125-12.915 1.125 12.709 1.125 12.915-.504 12.923-1.125 12.923z"/><path d="m42.965 531.749c.137.089-.536 1.393-1.549 3.339-1.014 1.947-2.324 4.559-3.552 7.218-1.202 2.671-2.343 5.376-3.118 7.464-.791 2.081-1.274 3.52-1.318 3.604-.021.092-.59 1.499-1.34 3.593-.767 2.089-1.657 4.884-2.479 7.694-.795 2.816-1.497 5.652-1.992 7.788s-.831 3.564-.993 3.542c-.146-.019-.103-1.49.13-3.69.233-2.199.703-5.117 1.311-8.025.635-2.9 1.382-5.793 2.054-7.959.655-2.17 1.177-3.63 1.198-3.723.044-.085.597-1.534 1.51-3.611.897-2.084 2.21-4.77 3.614-7.389 1.429-2.607 2.969-5.132 4.223-6.955 1.253-1.824 2.177-2.971 2.301-2.891z"/><path d="m356.293 812.841c-.064.308-2.521.109-4.943.329-1.211.114-2.412.271-3.311.455-.9.172-1.504.328-1.543.326-.036.016-.655.089-1.555.257-.904.155-2.079.446-3.248.779-2.335.674-4.55 1.752-4.722 1.488-.172-.252 1.805-1.855 4.143-2.97 1.163-.55 2.376-1.026 3.322-1.309.943-.295 1.605-.441 1.643-.457.042 0 .712-.104 1.698-.172.985-.08 2.289-.079 3.573.011 2.584.189 5.011.964 4.942 1.261z"/></svg>