<svg height="319.053" viewBox="0 0 333.208 319.053" width="333.208" xmlns="http://www.w3.org/2000/svg"><path d="m328.742 129.809a150.55 150.55 0 0 0 -8.088-23.181c-.007-.018-.03-.024-.042-.039s0-.034-.017-.046l-6.672-4.489c-.34-.23-1.97.019-1.872.6q1.049 6.219 2.1 12.441.268 1.592.536 3.184a4.981 4.981 0 0 1 .266 1.573c-.154.45-1.728 1.167-2.175 1.325a4.946 4.946 0 0 1 -3.058 0 10.278 10.278 0 0 1 -5.223-4.254c-.29-.415-1.817-.093-1.923.414-1.313 6.268-3.41 12.7-7.422 17.792-2.466 3.133-5.914 6.032-10.05 6.344-9.013.68-14.175-8.982-15.482-16.544q-.209-1.206-.33-2.424c-.05-.5.064-1.511-.211-1.913a8.019 8.019 0 0 0 -1.79-1.31l-4.87-3.559c-.353-.259-1.774 0-1.863.5q-1.331 7.594-2.662 15.189c-.077.436-.386 1.239-.207 1.657.151.352.408.247.348.514-.07.315-.863.875-1.093 1.1-.854.833-1.737 1.639-2.652 2.405a36.678 36.678 0 0 1 -9.644 5.963c-5.9 2.393-12.681 2.66-18.267-.713-6.095-3.679-9.231-10.5-10.5-17.272a48.348 48.348 0 0 1 -.784-7.564c-.042-1.454-.029-2.909.03-4.363.03-.759.4-2.234 0-2.833a6.212 6.212 0 0 0 -1.381-1.01l-2.218-1.621-2.97-2.172a1.688 1.688 0 0 0 -1.863.5q-3.126 6.009-6.25 12.019c-4.333-.883-6.886-5.113-7.822-9.27-1.432-6.358.2-13.048 3.194-18.708a.151.151 0 0 0 -.051-.188l-6.671-4.878c-.457-.334-1.425.053-1.788.388l-9.087 8.4a.2.2 0 0 0 -.024.3l.3.311c-10.268.442-20.566-4.066-25.417-13.559a21.956 21.956 0 0 1 5.002-26.418 28.493 28.493 0 0 1 4.018-3.032c1.095-.691 1.2-.626 1.307-1.781q.278-3.074.554-6.145c.033-.374-.572-.282-.792-.256l-12.121 1.442c-6.2-4.614-11.152-11.61-11.479-19.54a17.1 17.1 0 0 1 2.667-10c2.468-3.809 6.208-6.066 10.289-7.812 1.2-.515 1.094-1.77 1.355-2.967l.861-3.945c.1-.448-.886-.244-1.052-.2l-20.734 5.487c-.137.037-1.146.382-.811.7l2.307 2.185a145.046 145.046 0 0 0 -20.32 6.154 183.008 183.008 0 0 0 -24.328 11.41 187.1 187.1 0 0 0 -24.695 16.5 170.1 170.1 0 0 0 -22.984 21.888 150.629 150.629 0 0 0 -18.853 27.22 140.977 140.977 0 0 0 -12.731 33.057 151.769 151.769 0 0 0 -4.249 38.635 190.644 190.644 0 0 0 6.393 44.936c3.664 14.076 8.734 27.674 16.2 40.2a132.257 132.257 0 0 0 24.475 29.964 143.308 143.308 0 0 0 31.124 21.466 167.587 167.587 0 0 0 35.32 13.249 191.58 191.58 0 0 0 37.625 5.591 202.868 202.868 0 0 0 37.687-1.65 179.475 179.475 0 0 0 36.621-8.788 147.337 147.337 0 0 0 36.958-19.935 161.9 161.9 0 0 0 31.24-30.31 159.784 159.784 0 0 0 22.223-37.984 147.2 147.2 0 0 0 10.559-43.43 140.857 140.857 0 0 0 -3.971-46.9z"/><path d="m153.781.514c-42.4-1.721-190.043 62.807-144.029 212.461 28.148 91.553 132.001 115.925 208.755 92.325 74.3-22.846 133.993-114.169 94.51-203.288.842 14.087-9.747 19.8-16.16 10.3-7.127 34.647-33.952 30.117-35.346 3.762-19.817 35.063-57.251 32.908-53.87-10.22-16.775 19.643-29.892-1.195-19.463-20.526-38.3 18.608-58.646-24.877-25.177-41.727-34.92-1.842-38.921-32.314-9.22-43.087z" fill="#f62d00"/><path d="m154.175.036a72.117 72.117 0 0 0 -17.324 1.814 152.2 152.2 0 0 0 -22.5 6.648 198.779 198.779 0 0 0 -25.378 11.652 202.828 202.828 0 0 0 -25.812 16.71 181.636 181.636 0 0 0 -24.077 21.94 156.667 156.667 0 0 0 -20.061 27.321 141.611 141.611 0 0 0 -13.891 33.185 147.171 147.171 0 0 0 -5.132 38.561 180.675 180.675 0 0 0 5.787 44.671c3.808 15.051 9.285 29.572 17.457 42.821a132.679 132.679 0 0 0 27.309 31.669 147.547 147.547 0 0 0 34.908 21.756 174.6 174.6 0 0 0 39.445 12.163 197.394 197.394 0 0 0 41.38 3.2 199.835 199.835 0 0 0 40.486-5.233 150.765 150.765 0 0 0 40.938-15.951 158.648 158.648 0 0 0 36.452-29.075 161.841 161.841 0 0 0 27.172-39.36 149.231 149.231 0 0 0 14.1-46.816 141.171 141.171 0 0 0 -2.823-50.606 149.985 149.985 0 0 0 -8.629-25.351c-.248-.562-1.962-.082-1.932.517.231 4.539-.558 10.4-4.586 13.261-3.645 2.591-7.6-.542-9.7-3.581-.289-.417-1.767.044-1.863.5-1.76 8.405-5.4 19.411-14 23.206-6.157 2.717-12.415-1.064-15.648-6.372a29.025 29.025 0 0 1 -3.774-13.473c-.038-.658-1.751.094-1.926.4-5.81 10.21-15 20.769-27.043 23.3a19.333 19.333 0 0 1 -12.825-1.513 20.8 20.8 0 0 1 -9.195-10.271c-3.048-6.848-3.444-14.647-2.889-22.021.056-.749-1.613-.11-1.849.163-2.792 3.224-6.663 7.126-11.222 7.392a8.612 8.612 0 0 1 -7.588-4.363c-4.5-7.076-2.478-16.786 1.2-23.718.3-.572-1.413-.136-1.541-.074-10.6 5.1-24.162 6.7-33.486-1.865a22.114 22.114 0 0 1 -4.876-25.6c2.9-6.22 8.325-10.766 14.347-13.832.328-.167.617-.651.026-.684-9.553-.538-20.757-3.4-26.182-12.07-4.2-6.719-2.773-14.859 2.191-20.743 3.8-4.5 9.061-7.473 14.525-9.481 1.276-.468.1-.939-.722-.638-8.724 3.205-18.092 9.378-20.124 19.111-1.751 8.387 3.282 15.816 10.377 19.85 5.678 3.229 12.257 4.542 18.718 4.906l.026-.685c-10.2 5.194-18.7 15.1-17.1 27.2 1.4 10.626 10.321 18.207 20.695 19.527 7.844 1 15.718-1.184 22.742-4.563l-1.541-.074c-3.442 6.5-5.231 14.844-2.28 21.875 2.26 5.386 7.323 8.059 12.984 6.3 4.284-1.335 7.728-4.482 10.608-7.807l-1.849.163c-.857 11.392.633 26.213 11.745 32.481 9.3 5.248 20.731 1.408 28.709-4.515a57.638 57.638 0 0 0 15.337-18.032l-1.926.4c.448 7.774 3.446 17.045 11.3 20.257 6.955 2.845 14.251-1.026 18.537-6.565 3.988-5.154 6.116-11.551 7.436-17.856l-1.862.5c2.757 3.984 7.356 6.191 11.934 3.757 5.169-2.749 6.364-9.346 6.094-14.667l-1.932.517a145.4 145.4 0 0 1 12.364 50.913 142.8 142.8 0 0 1 -6.055 48.933 155.749 155.749 0 0 1 -20.9 43.1 161.472 161.472 0 0 1 -32.086 34.445 146.009 146.009 0 0 1 -39.975 22.849 174.733 174.733 0 0 1 -39.751 9.3 197.941 197.941 0 0 1 -41.037.71 184.831 184.831 0 0 1 -40.467-8.044 157.87 157.87 0 0 1 -36.924-17.218 136.689 136.689 0 0 1 -30.67-26.733 133.53 133.53 0 0 1 -22.14-37.255 185.46 185.46 0 0 1 -11.229-45.325 158.154 158.154 0 0 1 .194-41.109 141.081 141.081 0 0 1 9.705-35.2 146.309 146.309 0 0 1 17.148-29.961 166.98 166.98 0 0 1 22.124-24.368 191.909 191.909 0 0 1 24.87-19.059 201.447 201.447 0 0 1 25.542-14 177.25 177.25 0 0 1 23.635-8.916 109.02 109.02 0 0 1 19.622-4.076 52.658 52.658 0 0 1 7.365-.269c.644.025 2.079-.906.788-.956z"/><path d="m127.171 209.141c4.7-5.97 4.731-13.4 2.157-20.277-2.281-6.093-6.137-11.261-9.475-16.777-2.816-4.653-5.452-9.343-8.68-13.742-8.47-11.543-21.894-24.569-37.528-19.478-7.481 2.436-13.81 8.31-17.83 14.962a33.465 33.465 0 0 0 -3.063 28.076 46.3 46.3 0 0 0 4.017 8.72c9.127 15.443 23.5 32.523 43.255 31.538a39.473 39.473 0 0 0 15.043-4.013c4.527-2.17 8.967-5.019 12.104-9.009z"/><path d="m84.042 95.318a27.111 27.111 0 0 0 15.19 7.238 25.128 25.128 0 0 0 17.094-3.687 29.42 29.42 0 0 0 10.989-13.369 26.406 26.406 0 0 0 1.914-14.8c-.707-3.658-2.954-7.1-5.145-10.048a24.5 24.5 0 0 0 -10-8.313c-5.148-2.146-10.847-1.7-16.052.009a39.878 39.878 0 0 0 -5 2.06c-.076.037-.138.072-.189.1a26.756 26.756 0 0 0 -12.232 12.06 28.827 28.827 0 0 0 -2.533 15.283c.507 5.149 2.222 9.801 5.964 13.467z"/><path d="m182.062 134.927a19.309 19.309 0 0 0 -8.383-10.646c-7.264-4.729-18.3-6.809-25.437-.762-4.474 3.793-7.421 9.3-9.251 14.793-1.913 5.74-2.762 12.136-1.359 18.088 1.14 4.544 3.484 8.962 7.778 11.207a17.069 17.069 0 0 0 11.648 1.066 32.537 32.537 0 0 0 13-6.79 36 36 0 0 0 10.775-13.273 20.175 20.175 0 0 0 1.229-13.683z"/><path d="m138.5 254.418c-8.28-5-19.144-6.957-27.554-1.077-8.9 6.224-8.119 18.85-1.72 26.593a29.153 29.153 0 0 0 21.109 10.066c8.031.163 16.64-3.79 19.744-11.618a16.2 16.2 0 0 0 -.883-13.85c-2.433-4.332-6.508-7.58-10.696-10.114z"/><path d="m197.9 206.722c-7.374-2.461-15.769 2.966-17.539 10.292-1.037 4.722-.357 9.964 3.57 13.195a13.187 13.187 0 0 0 12.073 2.107 14.59 14.59 0 0 0 9.736-9.907c1.841-6.148-1.64-13.621-7.84-15.687z"/><path d="m301.836 169.524c-1.647-6.142-5.25-12.014-11.465-14.307-6.586-2.429-14.057-.715-19.795 3.017-5.917 3.847-10.487 9.642-13.823 15.795a52.536 52.536 0 0 0 -6.223 21.429c-.12 1.788-.144 3.58-.085 5.372a57.67 57.67 0 0 0 3.342 17.465c1.94 5.294 5.237 11.572 10.795 13.783 6.649 2.645 13.371-2.253 18.1-6.447a61.66 61.66 0 0 0 13.018-16.262c6.506-11.763 9.677-26.639 6.136-39.845z"/></svg>